<?xml version="1.0" encoding="utf-8"?>
<!-- Generator: Adobe Illustrator 16.0.0, SVG Export Plug-In . SVG Version: 6.00 Build 0)  -->
<!DOCTYPE svg PUBLIC "-//W3C//DTD SVG 1.1//EN" "http://www.w3.org/Graphics/SVG/1.1/DTD/svg11.dtd">
<svg version="1.1" id="图层_1" xmlns="http://www.w3.org/2000/svg" xmlns:xlink="http://www.w3.org/1999/xlink" x="0px" y="0px"
	 width="339.485px" height="100px" viewBox="0 0 339.485 100" enable-background="new 0 0 339.485 100" xml:space="preserve">
<g>
	<g>
		<g display="none">
			<g display="inline">
				<path fill="#1A1A1A" d="M103.29,119.302c0.07,0,0.14-0.046,0.14-0.166v-0.498c0-3.618,0-4.285-0.045-5.049
					c-0.046-0.811-0.239-1.192-1.026-1.358c-0.189-0.049-0.596-0.071-0.926-0.071c-0.264,0-0.404-0.048-0.404-0.216
					c0-0.164,0.167-0.213,0.5-0.213c1.286,0,2.785,0.071,3.426,0.071c0.57,0,2.071-0.071,3.002-0.071c0.332,0,0.5,0.049,0.5,0.213
					c0,0.168-0.142,0.216-0.43,0.216c-0.187,0-0.404,0.022-0.688,0.071c-0.641,0.121-0.831,0.523-0.88,1.358
					c-0.05,0.764-0.05,1.429-0.05,5.049v4.188c0,2.192,0,4.074,0.118,5.096c0.073,0.667,0.218,1.192,0.933,1.288
					c0.33,0.045,0.855,0.095,1.21,0.095c0.262,0,0.381,0.069,0.381,0.188c0,0.166-0.189,0.237-0.477,0.237
					c-1.548,0-3.048-0.071-3.714-0.071c-0.547,0-2.046,0.071-2.973,0.071c-0.335,0-0.502-0.071-0.502-0.237
					c0-0.119,0.093-0.188,0.378-0.188c0.361,0,0.646-0.05,0.861-0.095c0.476-0.096,0.592-0.621,0.688-1.312
					c0.119-0.998,0.119-2.88,0.119-5.072v-2.095c0-0.096-0.071-0.143-0.14-0.143h-9.094c-0.074,0-0.147,0.024-0.147,0.143v2.095
					c0,2.192,0,4.074,0.122,5.096c0.073,0.667,0.216,1.192,0.931,1.288c0.333,0.045,0.855,0.095,1.212,0.095
					c0.26,0,0.382,0.069,0.382,0.188c0,0.166-0.192,0.237-0.477,0.237c-1.545,0-3.048-0.071-3.713-0.071
					c-0.55,0-2.05,0.071-3.002,0.071c-0.307,0-0.474-0.071-0.474-0.237c0-0.119,0.096-0.188,0.384-0.188
					c0.355,0,0.641-0.05,0.854-0.095c0.475-0.096,0.597-0.621,0.689-1.312c0.122-0.998,0.122-2.88,0.122-5.072v-4.188
					c0-3.618,0-4.282-0.047-5.049c-0.047-0.811-0.239-1.192-1.025-1.358c-0.192-0.049-0.592-0.071-0.93-0.071
					c-0.259,0-0.405-0.048-0.405-0.216c0-0.164,0.169-0.213,0.504-0.213c1.282,0,2.782,0.071,3.426,0.071
					c0.571,0,2.074-0.071,2.999-0.071c0.335,0,0.502,0.049,0.502,0.213c0,0.168-0.143,0.216-0.428,0.216
					c-0.191,0-0.405,0.022-0.69,0.071c-0.645,0.121-0.833,0.523-0.884,1.358c-0.049,0.767-0.049,1.429-0.049,5.049v0.498
					c0,0.12,0.075,0.166,0.146,0.166H103.29z"/>
				<path fill="#1A1A1A" d="M112.834,120.281c0-3.071,0.023-3.646-0.022-4.286c-0.048-0.715-0.241-0.902-0.909-1.096
					c-0.163-0.049-0.521-0.072-0.808-0.072c-0.239,0-0.356-0.072-0.356-0.215c0-0.142,0.143-0.187,0.452-0.187
					c1.118,0,2.527,0.045,3.142,0.045c0.524,0,1.928-0.045,2.692-0.045c0.308,0,0.455,0.045,0.455,0.187
					c0,0.143-0.122,0.215-0.336,0.215c-0.24,0-0.356,0.023-0.616,0.072c-0.549,0.095-0.714,0.381-0.763,1.096
					c-0.049,0.641-0.049,1.215-0.049,4.286v2.832c0,2.953,0.574,4.095,1.599,4.904c0.924,0.74,1.926,0.81,2.641,0.81
					c0.907,0,1.974-0.263,2.811-1.071c1.167-1.097,1.211-2.854,1.211-4.93v-2.545c0-3.071-0.022-3.646-0.045-4.286
					c-0.048-0.692-0.217-0.902-0.883-1.096c-0.167-0.049-0.525-0.072-0.762-0.072c-0.24,0-0.359-0.072-0.359-0.215
					c0-0.142,0.146-0.187,0.432-0.187c1.069,0,2.478,0.045,2.497,0.045c0.239,0,1.644-0.045,2.456-0.045
					c0.285,0,0.426,0.045,0.426,0.187c0,0.143-0.122,0.215-0.358,0.215c-0.234,0-0.357,0.023-0.615,0.072
					c-0.574,0.095-0.717,0.381-0.765,1.096c-0.022,0.641-0.049,1.215-0.049,4.286v2.167c0,2.262-0.234,4.642-1.996,6.094
					c-1.479,1.239-3.069,1.452-4.432,1.452c-1.095,0-3.262-0.048-4.783-1.383c-1.073-0.926-1.906-2.426-1.906-5.356V120.281
					L112.834,120.281z"/>
				<path fill="#1A1A1A" d="M131.832,120.281c0-3.071,0-3.646-0.025-4.286c-0.046-0.692-0.262-0.929-0.716-1.071
					c-0.239-0.073-0.498-0.096-0.76-0.096c-0.216,0-0.335-0.046-0.335-0.239c0-0.118,0.165-0.163,0.5-0.163
					c0.788,0,2.216,0.045,2.812,0.045c0.525,0,1.882-0.045,2.69-0.045c0.259,0,0.428,0.045,0.428,0.163
					c0,0.19-0.121,0.239-0.331,0.239c-0.218,0-0.382,0.022-0.621,0.071c-0.573,0.096-0.739,0.381-0.786,1.098
					c-0.043,0.639-0.043,1.213-0.043,4.285v3.572c0,1.951,0,3.569,0.091,4.426c0.073,0.547,0.214,0.857,0.834,0.952
					c0.287,0.046,0.76,0.072,1.07,0.072c0.24,0,0.333,0.119,0.333,0.213c0,0.143-0.167,0.213-0.403,0.213
					c-1.379,0-2.81-0.07-3.382-0.07c-0.474,0-1.901,0.07-2.738,0.07c-0.26,0-0.406-0.07-0.406-0.213
					c0-0.094,0.073-0.213,0.335-0.213c0.31,0,0.548-0.026,0.738-0.072c0.428-0.095,0.55-0.379,0.619-0.978
					c0.095-0.831,0.095-2.45,0.095-4.402V120.281L131.832,120.281z"/>
				<path fill="#1A1A1A" d="M144.663,123.567c0-1.288-0.239-1.812-0.547-2.499c-0.167-0.385-3.358-5.622-4.189-6.859
					c-0.599-0.883-1.191-1.474-1.645-1.739c-0.31-0.164-0.715-0.307-0.996-0.307c-0.196,0-0.361-0.049-0.361-0.217
					c0-0.144,0.166-0.213,0.453-0.213c0.429,0,2.217,0.069,2.999,0.069c0.502,0,1.479-0.069,2.548-0.069
					c0.239,0,0.357,0.069,0.357,0.213s-0.167,0.168-0.524,0.262c-0.216,0.046-0.336,0.239-0.336,0.432
					c0,0.189,0.12,0.474,0.288,0.808c0.335,0.714,3.669,6.451,4.05,7.116c0.239-0.569,3.237-5.807,3.569-6.544
					c0.241-0.525,0.333-0.929,0.333-1.239c0-0.237-0.092-0.5-0.498-0.595c-0.215-0.049-0.429-0.096-0.429-0.239
					c0-0.166,0.121-0.213,0.401-0.213c0.79,0,1.55,0.069,2.241,0.069c0.524,0,2.094-0.069,2.546-0.069
					c0.263,0,0.43,0.047,0.43,0.188c0,0.166-0.191,0.241-0.454,0.241c-0.236,0-0.689,0.091-1.046,0.284
					c-0.504,0.239-0.764,0.522-1.286,1.168c-0.784,0.949-4.12,6.548-4.546,7.567c-0.356,0.862-0.356,1.6-0.356,2.385v1.948
					c0,0.384,0,1.385,0.068,2.383c0.049,0.689,0.263,1.214,0.979,1.312c0.333,0.045,0.857,0.095,1.187,0.095
					c0.266,0,0.386,0.069,0.386,0.188c0,0.166-0.189,0.237-0.503,0.237c-1.5,0-2.998-0.071-3.64-0.071
					c-0.598,0-2.097,0.071-2.977,0.071c-0.333,0-0.522-0.046-0.522-0.237c0-0.119,0.117-0.188,0.381-0.188
					c0.332,0,0.62-0.05,0.83-0.095c0.477-0.096,0.693-0.621,0.741-1.312c0.073-0.998,0.073-2,0.073-2.383v-1.948H144.663z"/>
				<path fill="#1A1A1A" d="M157.47,120.281c0-3.071,0-3.646-0.026-4.286c-0.049-0.692-0.26-0.929-0.716-1.071
					c-0.237-0.073-0.497-0.096-0.761-0.096c-0.213,0-0.334-0.046-0.334-0.239c0-0.118,0.168-0.163,0.502-0.163
					c0.789,0,2.215,0.045,2.809,0.045c0.524,0,1.883-0.045,2.69-0.045c0.264,0,0.43,0.045,0.43,0.163
					c0,0.19-0.118,0.239-0.333,0.239c-0.214,0-0.381,0.022-0.618,0.071c-0.571,0.096-0.741,0.381-0.783,1.098
					c-0.051,0.639-0.051,1.213-0.051,4.285v3.572c0,1.951,0,3.569,0.095,4.426c0.073,0.547,0.216,0.857,0.836,0.952
					c0.283,0.046,0.76,0.072,1.067,0.072c0.239,0,0.335,0.119,0.335,0.213c0,0.143-0.165,0.213-0.401,0.213
					c-1.383,0-2.812-0.07-3.383-0.07c-0.476,0-1.901,0.07-2.742,0.07c-0.258,0-0.4-0.07-0.4-0.213c0-0.094,0.07-0.213,0.33-0.213
					c0.311,0,0.549-0.026,0.741-0.072c0.428-0.095,0.547-0.379,0.616-0.978c0.097-0.831,0.097-2.45,0.097-4.402L157.47,120.281
					L157.47,120.281z"/>
				<path fill="#1A1A1A" d="M168.468,126.972c0.043,1.57,0.31,2.045,0.713,2.189c0.359,0.117,0.763,0.144,1.099,0.144
					c0.238,0,0.356,0.096,0.356,0.213c0,0.167-0.192,0.213-0.479,0.213c-1.358,0-2.333-0.071-2.715-0.071
					c-0.188,0-1.193,0.071-2.265,0.071c-0.284,0-0.473-0.022-0.473-0.213c0-0.117,0.143-0.213,0.332-0.213
					c0.289,0,0.667-0.026,0.953-0.095c0.547-0.145,0.616-0.69,0.643-2.455l0.189-11.999c0-0.403,0.142-0.689,0.358-0.689
					c0.26,0,0.55,0.308,0.905,0.664c0.259,0.265,3.402,3.479,6.449,6.452c1.429,1.407,4.215,4.266,4.523,4.55h0.092l-0.21-9.001
					c-0.027-1.235-0.217-1.592-0.715-1.785c-0.31-0.119-0.809-0.119-1.099-0.119c-0.259,0-0.33-0.097-0.33-0.215
					c0-0.165,0.212-0.187,0.524-0.187c1.096,0,2.212,0.045,2.663,0.045c0.24,0,1.027-0.045,2.049-0.045
					c0.288,0,0.476,0.022,0.476,0.187c0,0.118-0.117,0.215-0.354,0.215c-0.216,0-0.385,0-0.641,0.072
					c-0.573,0.167-0.741,0.522-0.765,1.669l-0.239,12.759c0,0.454-0.168,0.642-0.335,0.642c-0.354,0-0.645-0.21-0.856-0.427
					c-1.31-1.214-3.932-3.714-6.117-5.833c-2.286-2.188-4.501-4.643-4.905-5.002h-0.072L168.468,126.972z"/>
				<path fill="#1A1A1A" d="M199.964,128.373c0,0.549,0,0.575-0.267,0.715c-1.401,0.693-3.475,0.906-5.112,0.906
					c-5.143,0-9.692-2.334-9.692-7.927c0-3.237,1.737-5.499,3.666-6.621c2.002-1.166,3.88-1.31,5.642-1.31
					c1.453,0,3.288,0.237,3.715,0.334c0.429,0.074,1.167,0.189,1.669,0.215c0.236,0.023,0.285,0.097,0.285,0.24
					c0,0.239-0.145,0.783-0.145,3.331c0,0.309-0.115,0.452-0.283,0.452c-0.146,0-0.189-0.093-0.215-0.259
					c-0.049-0.456-0.167-1.098-0.719-1.667c-0.616-0.642-2.188-1.549-4.543-1.549c-1.145,0-2.596,0.026-4.047,1.191
					c-1.168,0.955-1.931,2.453-1.931,4.928c0,4.358,2.809,7.524,7.285,7.524c0.55,0,0.977,0,1.479-0.217
					c0.305-0.141,0.404-0.356,0.404-0.711v-1.86c0-0.996,0-1.758-0.027-2.38c-0.021-0.688-0.239-0.905-0.905-1.097
					c-0.163-0.051-0.524-0.073-0.806-0.073c-0.189,0-0.336-0.092-0.336-0.213c0-0.165,0.168-0.187,0.454-0.187
					c1.097,0,2.596,0.045,3.215,0.045c0.669,0,1.759-0.045,2.451-0.045c0.285,0,0.428,0.023,0.428,0.187
					c0,0.121-0.117,0.213-0.263,0.213c-0.165,0-0.333,0.022-0.567,0.073c-0.573,0.095-0.79,0.383-0.813,1.097
					c-0.022,0.62-0.022,1.426-0.022,2.429L199.964,128.373L199.964,128.373z"/>
				<path fill="#1A1A1A" d="M206.289,118.638c0-3.618,0-4.282-0.043-5.049c-0.047-0.809-0.24-1.191-1.025-1.357
					c-0.19-0.046-0.599-0.068-0.928-0.068c-0.266,0-0.403-0.049-0.403-0.219c0-0.164,0.165-0.211,0.521-0.211
					c1.263,0,2.763,0.069,3.428,0.069c0.735,0,2.235-0.069,3.669-0.069c2.974,0,6.953,0,9.545,2.714
					c1.191,1.239,2.312,3.212,2.312,6.045c0,3.001-1.262,5.289-2.598,6.644c-1.094,1.118-3.566,2.811-7.973,2.811
					c-0.855,0-1.834-0.07-2.739-0.146c-0.904-0.07-1.74-0.141-2.333-0.141c-0.259,0-0.783,0-1.356,0.026
					c-0.546,0-1.167,0.044-1.643,0.044c-0.311,0-0.475-0.07-0.475-0.236c0-0.12,0.092-0.189,0.376-0.189
					c0.361,0,0.649-0.05,0.859-0.094c0.478-0.097,0.6-0.62,0.691-1.313c0.117-0.998,0.117-2.88,0.117-5.072v-4.188H206.289z
					 M209.27,121.256c0,2.523,0.024,4.358,0.049,4.811c0.019,0.595,0.07,1.548,0.257,1.808c0.312,0.454,1.243,0.953,3.122,0.953
					c2.429,0,4.047-0.477,5.479-1.715c1.522-1.309,1.999-3.476,1.999-5.93c0-3.021-1.263-4.971-2.288-5.949
					c-2.188-2.098-4.9-2.383-6.761-2.383c-0.477,0-1.359,0.073-1.55,0.169c-0.213,0.093-0.283,0.214-0.283,0.473
					c-0.024,0.812-0.024,2.882-0.024,4.762V121.256z"/>
				<path fill="#1A1A1A" d="M229.002,124.612c-0.12,0-0.143,0.025-0.188,0.144l-1.123,2.736c-0.212,0.503-0.304,1.002-0.304,1.239
					c0,0.356,0.184,0.573,0.828,0.573h0.315c0.26,0,0.309,0.096,0.309,0.213c0,0.167-0.121,0.213-0.337,0.213
					c-0.69,0-1.668-0.071-2.332-0.071c-0.212,0-1.333,0.071-2.43,0.071c-0.26,0-0.383-0.046-0.383-0.213
					c0-0.117,0.073-0.213,0.24-0.213c0.19,0,0.428-0.026,0.623-0.026c0.947-0.141,1.304-0.76,1.737-1.787l5.473-12.642
					c0.238-0.572,0.406-0.812,0.622-0.812c0.307,0,0.4,0.193,0.616,0.645c0.498,1.119,3.995,9.309,5.332,12.383
					c0.81,1.831,1.407,2.094,1.785,2.164c0.313,0.049,0.55,0.075,0.786,0.075c0.189,0,0.285,0.069,0.285,0.213
					c0,0.167-0.118,0.213-0.9,0.213c-0.738,0-2.264,0-4.025-0.046c-0.384-0.025-0.62-0.025-0.62-0.167
					c0-0.117,0.048-0.19,0.264-0.213c0.141-0.026,0.283-0.217,0.186-0.452l-1.613-4.097c-0.049-0.118-0.123-0.144-0.218-0.144
					H229.002z M233.477,123.495c0.098,0,0.121-0.048,0.098-0.119l-1.979-5.07c-0.02-0.075-0.046-0.189-0.092-0.189
					c-0.076,0-0.095,0.114-0.122,0.189l-2.024,5.045c-0.046,0.097,0,0.145,0.073,0.145H233.477z"/>
				<path fill="#1A1A1A" d="M243.146,120.281c0-3.071,0-3.646-0.027-4.286c-0.043-0.692-0.261-0.929-0.714-1.071
					c-0.236-0.073-0.499-0.096-0.76-0.096c-0.217,0-0.336-0.046-0.336-0.239c0-0.118,0.169-0.163,0.501-0.163
					c0.788,0,2.217,0.045,2.812,0.045c0.521,0,1.881-0.045,2.687-0.045c0.267,0,0.431,0.045,0.431,0.163
					c0,0.19-0.12,0.239-0.332,0.239c-0.216,0-0.381,0.022-0.618,0.071c-0.572,0.096-0.74,0.381-0.788,1.098
					c-0.043,0.639-0.043,1.213-0.043,4.285v3.572c0,1.951,0,3.569,0.091,4.426c0.074,0.547,0.216,0.857,0.832,0.952
					c0.288,0.046,0.764,0.072,1.072,0.072c0.238,0,0.336,0.119,0.336,0.213c0,0.143-0.167,0.213-0.405,0.213
					c-1.38,0-2.81-0.07-3.379-0.07c-0.476,0-1.904,0.07-2.742,0.07c-0.261,0-0.401-0.07-0.401-0.213
					c0-0.094,0.071-0.213,0.333-0.213c0.312,0,0.551-0.026,0.738-0.072c0.429-0.095,0.548-0.379,0.618-0.978
					c0.097-0.831,0.097-2.45,0.097-4.402L243.146,120.281L243.146,120.281z"/>
				<path fill="#1A1A1A" d="M250.926,128.208c0-0.594,0.43-1.453,1.454-1.453c0.812,0,1.451,0.55,1.451,1.383
					s-0.57,1.522-1.475,1.522C251.356,129.66,250.926,128.876,250.926,128.208z"/>
				<path fill="#1A1A1A" d="M259.118,127.804c-2.073-1.74-2.623-4.024-2.623-5.976c0-1.382,0.452-3.761,2.454-5.548
					c1.522-1.334,3.521-2.144,6.645-2.144c1.306,0,2.095,0.097,3.046,0.219c0.786,0.115,1.475,0.257,2.095,0.33
					c0.239,0.023,0.309,0.119,0.309,0.24c0,0.167-0.049,0.404-0.098,1.118c-0.044,0.666-0.044,1.786-0.068,2.187
					c-0.025,0.288-0.092,0.503-0.286,0.503c-0.164,0-0.214-0.168-0.214-0.427c-0.028-0.644-0.284-1.361-0.812-1.882
					c-0.717-0.692-2.118-1.191-4.047-1.191c-1.833,0-3.003,0.334-3.951,1.143c-1.545,1.335-1.93,3.286-1.93,5.265
					c0,4.807,3.721,7.094,6.524,7.094c1.856,0,2.883-0.144,3.719-1.074c0.35-0.403,0.639-0.975,0.711-1.356
					c0.047-0.308,0.095-0.403,0.262-0.403c0.141,0,0.238,0.188,0.238,0.356c0,0.239-0.238,1.999-0.453,2.692
					c-0.097,0.355-0.19,0.452-0.545,0.594c-0.836,0.335-2.428,0.453-3.785,0.453C263.448,129.994,261.022,129.4,259.118,127.804z"/>
				<path fill="#1A1A1A" d="M273.28,122.067c0-3.452,2.427-7.931,8.785-7.931c5.286,0,8.57,2.93,8.57,7.57
					c0,4.647-3.378,8.287-8.779,8.287C275.752,129.994,273.28,125.661,273.28,122.067z M287.518,122.448
					c0-4.478-2.69-7.241-6.072-7.241c-2.336,0-5.071,1.239-5.071,6.239c0,4.168,2.381,7.452,6.336,7.452
					C284.185,128.898,287.518,128.208,287.518,122.448z"/>
				<path fill="#1A1A1A" d="M296.037,114.589c0.047-0.333,0.237-0.522,0.404-0.522c0.217,0,0.355,0.095,0.641,0.642l5.622,11.191
					l5.619-11.333c0.166-0.333,0.358-0.5,0.547-0.5c0.168,0,0.406,0.213,0.477,0.642l1.905,12.454
					c0.189,1.261,0.381,1.809,1.022,1.999c0.596,0.166,0.927,0.189,1.191,0.189c0.188,0,0.336,0.072,0.336,0.19
					c0,0.167-0.241,0.24-0.549,0.24c-0.528,0-3.501-0.073-4.333-0.122c-0.502-0.023-0.621-0.118-0.621-0.238
					c0-0.096,0.093-0.17,0.237-0.214c0.118-0.048,0.167-0.286,0.097-0.856l-1.164-8.738h-0.073l-4.502,8.951
					c-0.476,0.951-0.595,1.145-0.831,1.145c-0.265,0-0.501-0.403-0.834-1.025c-0.502-0.929-2.167-4.023-2.405-4.596
					c-0.165-0.378-1.406-2.831-2.096-4.237h-0.068l-1,7.808c-0.051,0.357-0.074,0.62-0.074,0.952c0,0.383,0.287,0.526,0.641,0.598
					c0.361,0.071,0.552,0.095,0.736,0.095c0.194,0,0.335,0.095,0.335,0.19c0,0.19-0.189,0.235-0.5,0.235
					c-0.88,0-1.83-0.07-2.212-0.07c-0.407,0-1.402,0.07-2.071,0.07c-0.213,0-0.382-0.045-0.382-0.235c0-0.096,0.119-0.19,0.339-0.19
					c0.16,0,0.306,0,0.637-0.051c0.573-0.07,0.762-0.88,0.861-1.544L296.037,114.589z"/>
			</g>
		</g>
		<g>
			<g>
				<path fill="#FFFFFF" d="M83.835,42.671c5.805,0,9.605,0.843,11.397,2.531c1.9,1.69,2.851,3.827,2.851,6.411
					c0,1.636-0.581,3.14-1.741,4.512c-1.373,1.318-2.847,1.979-4.432,1.979c-1.316,0-2.428-0.658-3.324-1.979
					c-0.792-1.161-1.266-2.561-1.425-4.193c0-1.373-0.314-2.693-0.947-3.958c-0.421-1.214-1.424-2.584-3.007-4.116L83.835,42.671z
					 M110.428,36.181l0.95,0.554l-9.024,34.109c-0.368,1.056-0.552,2.161-0.552,3.321c0,0.687,0.102,1.399,0.317,2.138
					c2.061,4.538,3.085,8.363,3.085,11.473c0,2.06-0.739,3.881-2.217,5.459c-1.373,1.321-3.219,1.979-5.539,1.979
					c-1.531,0-2.928-0.501-4.195-1.502c-1.32-1.16-1.979-2.82-1.979-4.985c0-1.316,0.317-3.772,0.95-7.359
					c0.58-2.322,0.872-4.298,0.872-5.934c0-1.952-2.879-3.295-8.629-4.037v-1.581c3.644-0.106,5.805-0.686,6.492-1.743
					L110.428,36.181z M89.14,24.706c6.438,0,10.628,0.899,12.581,2.69c2.113,1.691,3.167,3.88,3.167,6.569
					c0,1.637-0.607,3.168-1.819,4.591c-1.319,1.267-2.772,1.9-4.352,1.9c-1.531,0-2.85-0.659-3.957-1.979
					c-0.898-1.161-1.454-2.612-1.663-4.354c0-1.316-0.37-2.66-1.109-4.033c-0.476-1.216-1.634-2.585-3.48-4.119L89.14,24.706z
					 M112.326,24.706l12.662,5.858h15.432l5.858-7.123l8.705,7.123l-1.58,2.216h-29.048v54.682h17.016l6.175-7.755l8.623,6.171
					l-1.501,3.722h-29.042l-4.036,6.171l-12.666-6.727l3.403-5.3L112.326,24.706L112.326,24.706z"/>
				<path fill="#FFFFFF" d="M215.521,23.125l7.119,4.354c0.844,0.474,1.268,1.106,1.268,1.899c0,0.582-0.82,1.187-2.454,1.82
					l-2.847,7.123h2.528l3.96-3.721l7.917,4.985c0.735,0.476,1.103,1.083,1.103,1.823c0,0.579-0.738,1.185-2.214,1.818
					c-0.636,6.12-1.454,11.476-2.451,16.065c-0.849,3.272-2.773,5.17-5.783,5.696c-1.423,0.212-2.717,0.396-3.875,0.555l7.832,4.668
					c0.789,0.53,1.19,1.03,1.19,1.503c0,0.478-0.925,1.293-2.771,2.453V89.6l3.407-5.541l6.483,7.124l-1.186,2.134h-72.646
					l-0.951-2.134h8.628V65.541l11.476,3.957h31.652l3.401-3.719c-0.633,0.053-1.187,0.081-1.657,0.081
					c-0.213-4.169-2.377-6.757-6.493-7.757v-1.899h10.449c1.684-5.011,2.528-10.263,2.528-15.748h-4.033l-2.451,2.769l-9.575-4.273
					l3.082-2.533l2.139-6.727h-24.217c-0.102,4.328-0.396,8.125-0.87,11.396h12.584l3.56-4.034l8.546,5.379
					c0.684,0.528,1.028,1.001,1.028,1.424c0,0.634-0.738,1.374-2.217,2.216c-1.635,3.326-3.399,6.122-5.3,8.39
					c0.997,0.737,1.846,1.5,2.534,2.293c1.683,1.9,2.53,3.801,2.53,5.701c0,1.37-0.426,2.61-1.264,3.719
					c-1.059,1.214-2.191,1.82-3.404,1.82c-1.057,0-2.403-1.108-4.037-3.325c-1.213-1.529-2.453-2.952-3.72-4.273
					c-4.801,2.64-11.077,4.962-18.833,6.964l-1.265-0.949c6.753-3.375,11.578-6.698,14.482-9.969
					c0.206-0.21,0.398-0.422,0.555-0.633c-1.953-1.584-4.589-3.296-7.913-5.145c-0.421,1.056-0.844,1.977-1.268,2.769
					c-3.588,6.489-10.366,11.767-20.337,15.829l-0.635-1.267c5.227-4.75,8.707-9.708,10.445-14.878
					c1.634-4.958,2.482-12.767,2.535-23.424h-8.944l-0.947-2.214h47.321L215.521,23.125z M181.571,91.183h3.719V71.712h-3.719
					V91.183z M183.946,47.894c4.219,0.844,7.701,1.688,10.449,2.533c1.05-2.109,2.023-4.51,2.922-7.201h-12.423
					C184.628,44.966,184.312,46.523,183.946,47.894z M195.734,91.183h3.406V71.712h-3.406V91.183z M209.664,91.183h4.035V71.712
					h-4.035V91.183z"/>
				<path fill="#FFFFFF" d="M255.404,22.254l13.927,3.165c1.056,0.212,1.584,0.687,1.584,1.423c0,0.634-0.948,1.268-2.851,1.9
					c-2.269,2.217-4.459,4.142-6.57,5.776l0.479,0.08c1.002,0.266,1.505,0.582,1.505,0.951c0,0.581-0.636,1.187-1.901,1.82v13.928
					l-6.096,0.554l7.207,2.533h27.297l2.452-2.059c-4.27-2.163-7.754-4.854-10.442-8.073c-1.109-1.264-2.137-2.847-3.092-4.744
					l-13.926,2.847l-1.499-2.217l14.244-2.929c-1.745-3.798-3.405-8.571-4.989-14.325c9.604,0.159,14.406,0.292,14.406,0.397
					c1,0.054,1.553,0.528,1.661,1.423c-0.108,0.74-0.53,1.294-1.268,1.662l-1.189,0.474c0.898,3.221,2.009,5.857,3.324,7.915
					l12.739-2.611l4.354-6.487l7.359,4.907l-0.87,1.898l-22,4.511c0.581,0.74,1.187,1.346,1.82,1.82
					c2.589,2.321,6.728,4.22,12.429,5.698l3.714-7.439l1.506,0.316c0.211,2.849,0.314,5.011,0.314,6.489
					c0,1.793,1.238,3.457,3.722,4.984c0,1.794-1.004,3.563-3.011,5.304c-1.424,1.318-3.085,2.006-4.984,2.059
					c-0.579,0-1.104-0.028-1.58-0.081c0.844,0.686,1.267,1.239,1.267,1.661c0,0.687-0.928,1.398-2.771,2.136v20.102l-10.128,1.423
					c2.848,0.37,5.193,0.737,7.04,1.106c3.324,0.688,5.83,1.53,7.517,2.534c1.584,0.896,2.38,1.795,2.38,2.688
					c0,2.059-0.639,3.934-1.9,5.62c-1.583,1.795-3.325,2.69-5.22,2.69c-0.899,0-2.061-0.766-3.487-2.292
					c-1.95-2.114-4.062-3.988-6.326-5.62c-2.169-1.635-6.228-3.719-12.194-6.252l0.955-1.582c3.005,0.266,5.697,0.53,8.069,0.791
					V56.52h-27.537v24.769l-12.662,1.821V52.404l-1.264,0.157V42.117c-2.484,1.265-5.04,2.479-7.681,3.64l-0.947-0.632
					c3.693-3.431,6.81-6.991,9.337-10.683C251.525,31.645,253.45,27.584,255.404,22.254z M269.647,59.054l13.14,1.264
					c1.739,0.106,2.606,0.608,2.606,1.503c0.112,0.792-0.71,1.611-2.449,2.454c-0.211,9.55-2.588,16.355-7.124,20.417
					c-5.17,4.692-14.954,7.99-29.356,9.892L246.144,93c8.495-2.639,14.59-6.014,18.281-10.128
					C267.694,79.548,269.434,71.608,269.647,59.054z M292.201,21.937c4.431,0,7.305,0.476,8.623,1.423
					c1.475,0.899,2.218,2.059,2.218,3.482c0,1.426-0.502,2.746-1.505,3.958c-1.16,1.106-2.427,1.659-3.796,1.659
					c-0.896,0-1.689-0.444-2.377-1.344c-0.524-0.792-0.844-1.739-0.947-2.847c0-0.898-0.239-1.793-0.715-2.692
					c-0.313-0.792-1.023-1.688-2.132-2.691L292.201,21.937z"/>
			</g>
		</g>
	</g>
	<g>
		<g display="none">
			<g display="inline">
				<path fill="#1A1A1A" d="M103.29,118.302c0.07,0,0.14-0.046,0.14-0.166v-0.498c0-3.618,0-4.285-0.045-5.049
					c-0.046-0.811-0.239-1.192-1.026-1.358c-0.189-0.049-0.596-0.071-0.926-0.071c-0.264,0-0.404-0.048-0.404-0.216
					c0-0.164,0.167-0.213,0.5-0.213c1.286,0,2.785,0.071,3.426,0.071c0.57,0,2.071-0.071,3.002-0.071c0.332,0,0.5,0.049,0.5,0.213
					c0,0.168-0.142,0.216-0.43,0.216c-0.187,0-0.404,0.022-0.688,0.071c-0.641,0.121-0.831,0.523-0.88,1.358
					c-0.05,0.764-0.05,1.429-0.05,5.049v4.188c0,2.192,0,4.074,0.118,5.096c0.073,0.667,0.218,1.192,0.933,1.288
					c0.33,0.045,0.855,0.095,1.21,0.095c0.262,0,0.381,0.069,0.381,0.188c0,0.166-0.189,0.237-0.477,0.237
					c-1.548,0-3.048-0.071-3.714-0.071c-0.547,0-2.046,0.071-2.973,0.071c-0.335,0-0.502-0.071-0.502-0.237
					c0-0.119,0.093-0.188,0.378-0.188c0.361,0,0.646-0.05,0.861-0.095c0.476-0.096,0.592-0.621,0.688-1.312
					c0.119-0.998,0.119-2.88,0.119-5.072v-2.095c0-0.096-0.071-0.143-0.14-0.143h-9.094c-0.074,0-0.147,0.024-0.147,0.143v2.095
					c0,2.192,0,4.074,0.122,5.096c0.073,0.667,0.216,1.192,0.931,1.288c0.333,0.045,0.855,0.095,1.212,0.095
					c0.26,0,0.382,0.069,0.382,0.188c0,0.166-0.192,0.237-0.477,0.237c-1.545,0-3.048-0.071-3.713-0.071
					c-0.55,0-2.05,0.071-3.002,0.071c-0.307,0-0.474-0.071-0.474-0.237c0-0.119,0.096-0.188,0.384-0.188
					c0.355,0,0.641-0.05,0.854-0.095c0.475-0.096,0.597-0.621,0.689-1.312c0.122-0.998,0.122-2.88,0.122-5.072v-4.188
					c0-3.618,0-4.282-0.047-5.049c-0.047-0.811-0.239-1.192-1.025-1.358c-0.192-0.049-0.592-0.071-0.93-0.071
					c-0.259,0-0.405-0.048-0.405-0.216c0-0.164,0.169-0.213,0.504-0.213c1.282,0,2.782,0.071,3.426,0.071
					c0.571,0,2.074-0.071,2.999-0.071c0.335,0,0.502,0.049,0.502,0.213c0,0.168-0.143,0.216-0.428,0.216
					c-0.191,0-0.405,0.022-0.69,0.071c-0.645,0.121-0.833,0.523-0.884,1.358c-0.049,0.767-0.049,1.429-0.049,5.049v0.498
					c0,0.12,0.075,0.166,0.146,0.166H103.29z"/>
				<path fill="#1A1A1A" d="M112.834,119.281c0-3.071,0.023-3.646-0.022-4.286c-0.048-0.715-0.241-0.902-0.909-1.096
					c-0.163-0.049-0.521-0.072-0.808-0.072c-0.239,0-0.356-0.072-0.356-0.215c0-0.142,0.143-0.187,0.452-0.187
					c1.118,0,2.527,0.045,3.142,0.045c0.524,0,1.928-0.045,2.692-0.045c0.308,0,0.455,0.045,0.455,0.187
					c0,0.143-0.122,0.215-0.336,0.215c-0.24,0-0.356,0.023-0.616,0.072c-0.549,0.095-0.714,0.381-0.763,1.096
					c-0.049,0.641-0.049,1.215-0.049,4.286v2.832c0,2.953,0.574,4.095,1.599,4.904c0.924,0.74,1.926,0.81,2.641,0.81
					c0.907,0,1.974-0.263,2.811-1.071c1.167-1.097,1.211-2.854,1.211-4.93v-2.545c0-3.071-0.022-3.646-0.045-4.286
					c-0.048-0.692-0.217-0.902-0.883-1.096c-0.167-0.049-0.525-0.072-0.762-0.072c-0.24,0-0.359-0.072-0.359-0.215
					c0-0.142,0.146-0.187,0.432-0.187c1.069,0,2.478,0.045,2.497,0.045c0.239,0,1.644-0.045,2.456-0.045
					c0.285,0,0.426,0.045,0.426,0.187c0,0.143-0.122,0.215-0.358,0.215c-0.234,0-0.357,0.023-0.615,0.072
					c-0.574,0.095-0.717,0.381-0.765,1.096c-0.022,0.641-0.049,1.215-0.049,4.286v2.167c0,2.262-0.234,4.642-1.996,6.094
					c-1.479,1.239-3.069,1.452-4.432,1.452c-1.095,0-3.262-0.048-4.783-1.383c-1.073-0.926-1.906-2.426-1.906-5.356V119.281
					L112.834,119.281z"/>
				<path fill="#1A1A1A" d="M131.832,119.281c0-3.071,0-3.646-0.025-4.286c-0.046-0.692-0.262-0.929-0.716-1.071
					c-0.239-0.073-0.498-0.096-0.76-0.096c-0.216,0-0.335-0.046-0.335-0.239c0-0.118,0.165-0.163,0.5-0.163
					c0.788,0,2.216,0.045,2.812,0.045c0.525,0,1.882-0.045,2.69-0.045c0.259,0,0.428,0.045,0.428,0.163
					c0,0.19-0.121,0.239-0.331,0.239c-0.218,0-0.382,0.022-0.621,0.071c-0.573,0.096-0.739,0.381-0.786,1.098
					c-0.043,0.639-0.043,1.213-0.043,4.285v3.572c0,1.951,0,3.569,0.091,4.426c0.073,0.547,0.214,0.857,0.834,0.952
					c0.287,0.046,0.76,0.072,1.07,0.072c0.24,0,0.333,0.119,0.333,0.213c0,0.143-0.167,0.213-0.403,0.213
					c-1.379,0-2.81-0.07-3.382-0.07c-0.474,0-1.901,0.07-2.738,0.07c-0.26,0-0.406-0.07-0.406-0.213
					c0-0.094,0.073-0.213,0.335-0.213c0.31,0,0.548-0.026,0.738-0.072c0.428-0.095,0.55-0.379,0.619-0.978
					c0.095-0.831,0.095-2.45,0.095-4.402V119.281L131.832,119.281z"/>
				<path fill="#1A1A1A" d="M144.663,122.567c0-1.288-0.239-1.812-0.547-2.499c-0.167-0.385-3.358-5.622-4.189-6.859
					c-0.599-0.883-1.191-1.474-1.645-1.739c-0.31-0.164-0.715-0.307-0.996-0.307c-0.196,0-0.361-0.049-0.361-0.217
					c0-0.144,0.166-0.213,0.453-0.213c0.429,0,2.217,0.069,2.999,0.069c0.502,0,1.479-0.069,2.548-0.069
					c0.239,0,0.357,0.069,0.357,0.213s-0.167,0.168-0.524,0.262c-0.216,0.046-0.336,0.239-0.336,0.432
					c0,0.189,0.12,0.474,0.288,0.808c0.335,0.714,3.669,6.451,4.05,7.116c0.239-0.569,3.237-5.807,3.569-6.544
					c0.241-0.525,0.333-0.929,0.333-1.239c0-0.237-0.092-0.5-0.498-0.595c-0.215-0.049-0.429-0.096-0.429-0.239
					c0-0.166,0.121-0.213,0.401-0.213c0.79,0,1.55,0.069,2.241,0.069c0.524,0,2.094-0.069,2.546-0.069
					c0.263,0,0.43,0.047,0.43,0.188c0,0.166-0.191,0.241-0.454,0.241c-0.236,0-0.689,0.091-1.046,0.284
					c-0.504,0.239-0.764,0.522-1.286,1.168c-0.784,0.949-4.12,6.548-4.546,7.567c-0.356,0.862-0.356,1.6-0.356,2.385v1.948
					c0,0.384,0,1.385,0.068,2.383c0.049,0.689,0.263,1.214,0.979,1.312c0.333,0.045,0.857,0.095,1.187,0.095
					c0.266,0,0.386,0.069,0.386,0.188c0,0.166-0.189,0.237-0.503,0.237c-1.5,0-2.998-0.071-3.64-0.071
					c-0.598,0-2.097,0.071-2.977,0.071c-0.333,0-0.522-0.046-0.522-0.237c0-0.119,0.117-0.188,0.381-0.188
					c0.332,0,0.62-0.05,0.83-0.095c0.477-0.096,0.693-0.621,0.741-1.312c0.073-0.998,0.073-2,0.073-2.383v-1.948H144.663z"/>
				<path fill="#1A1A1A" d="M157.47,119.281c0-3.071,0-3.646-0.026-4.286c-0.049-0.692-0.26-0.929-0.716-1.071
					c-0.237-0.073-0.497-0.096-0.761-0.096c-0.213,0-0.334-0.046-0.334-0.239c0-0.118,0.168-0.163,0.502-0.163
					c0.789,0,2.215,0.045,2.809,0.045c0.524,0,1.883-0.045,2.69-0.045c0.264,0,0.43,0.045,0.43,0.163
					c0,0.19-0.118,0.239-0.333,0.239c-0.214,0-0.381,0.022-0.618,0.071c-0.571,0.096-0.741,0.381-0.783,1.098
					c-0.051,0.639-0.051,1.213-0.051,4.285v3.572c0,1.951,0,3.569,0.095,4.426c0.073,0.547,0.216,0.857,0.836,0.952
					c0.283,0.046,0.76,0.072,1.067,0.072c0.239,0,0.335,0.119,0.335,0.213c0,0.143-0.165,0.213-0.401,0.213
					c-1.383,0-2.812-0.07-3.383-0.07c-0.476,0-1.901,0.07-2.742,0.07c-0.258,0-0.4-0.07-0.4-0.213c0-0.094,0.07-0.213,0.33-0.213
					c0.311,0,0.549-0.026,0.741-0.072c0.428-0.095,0.547-0.379,0.616-0.978c0.097-0.831,0.097-2.45,0.097-4.402L157.47,119.281
					L157.47,119.281z"/>
				<path fill="#1A1A1A" d="M168.468,125.972c0.043,1.57,0.31,2.045,0.713,2.189c0.359,0.117,0.763,0.144,1.099,0.144
					c0.238,0,0.356,0.096,0.356,0.213c0,0.167-0.192,0.213-0.479,0.213c-1.358,0-2.333-0.071-2.715-0.071
					c-0.188,0-1.193,0.071-2.265,0.071c-0.284,0-0.473-0.022-0.473-0.213c0-0.117,0.143-0.213,0.332-0.213
					c0.289,0,0.667-0.026,0.953-0.095c0.547-0.145,0.616-0.69,0.643-2.455l0.189-11.999c0-0.403,0.142-0.689,0.358-0.689
					c0.26,0,0.55,0.308,0.905,0.664c0.259,0.265,3.402,3.479,6.449,6.452c1.429,1.407,4.215,4.266,4.523,4.55h0.092l-0.21-9.001
					c-0.027-1.235-0.217-1.592-0.715-1.785c-0.31-0.119-0.809-0.119-1.099-0.119c-0.259,0-0.33-0.097-0.33-0.215
					c0-0.165,0.212-0.187,0.524-0.187c1.096,0,2.212,0.045,2.663,0.045c0.24,0,1.027-0.045,2.049-0.045
					c0.288,0,0.476,0.022,0.476,0.187c0,0.118-0.117,0.215-0.354,0.215c-0.216,0-0.385,0-0.641,0.072
					c-0.573,0.167-0.741,0.522-0.765,1.669l-0.239,12.759c0,0.454-0.168,0.642-0.335,0.642c-0.354,0-0.645-0.21-0.856-0.427
					c-1.31-1.214-3.932-3.714-6.117-5.833c-2.286-2.188-4.501-4.643-4.905-5.002h-0.072L168.468,125.972z"/>
				<path fill="#1A1A1A" d="M199.964,127.373c0,0.549,0,0.575-0.267,0.715c-1.401,0.693-3.475,0.906-5.112,0.906
					c-5.143,0-9.692-2.334-9.692-7.927c0-3.237,1.737-5.499,3.666-6.621c2.002-1.166,3.88-1.31,5.642-1.31
					c1.453,0,3.288,0.237,3.715,0.334c0.429,0.074,1.167,0.189,1.669,0.215c0.236,0.023,0.285,0.097,0.285,0.24
					c0,0.239-0.145,0.783-0.145,3.331c0,0.309-0.115,0.452-0.283,0.452c-0.146,0-0.189-0.093-0.215-0.259
					c-0.049-0.456-0.167-1.098-0.719-1.667c-0.616-0.642-2.188-1.549-4.543-1.549c-1.145,0-2.596,0.026-4.047,1.191
					c-1.168,0.955-1.931,2.453-1.931,4.928c0,4.358,2.809,7.524,7.285,7.524c0.55,0,0.977,0,1.479-0.217
					c0.305-0.141,0.404-0.356,0.404-0.711v-1.86c0-0.996,0-1.758-0.027-2.38c-0.021-0.688-0.239-0.905-0.905-1.097
					c-0.163-0.051-0.524-0.073-0.806-0.073c-0.189,0-0.336-0.092-0.336-0.213c0-0.165,0.168-0.187,0.454-0.187
					c1.097,0,2.596,0.045,3.215,0.045c0.669,0,1.759-0.045,2.451-0.045c0.285,0,0.428,0.023,0.428,0.187
					c0,0.121-0.117,0.213-0.263,0.213c-0.165,0-0.333,0.022-0.567,0.073c-0.573,0.095-0.79,0.383-0.813,1.097
					c-0.022,0.62-0.022,1.426-0.022,2.429L199.964,127.373L199.964,127.373z"/>
				<path fill="#1A1A1A" d="M206.289,117.638c0-3.618,0-4.282-0.043-5.049c-0.047-0.809-0.24-1.191-1.025-1.357
					c-0.19-0.046-0.599-0.068-0.928-0.068c-0.266,0-0.403-0.049-0.403-0.219c0-0.164,0.165-0.211,0.521-0.211
					c1.263,0,2.763,0.069,3.428,0.069c0.735,0,2.235-0.069,3.669-0.069c2.974,0,6.953,0,9.545,2.714
					c1.191,1.239,2.312,3.212,2.312,6.045c0,3.001-1.262,5.289-2.598,6.644c-1.094,1.118-3.566,2.811-7.973,2.811
					c-0.855,0-1.834-0.07-2.739-0.146c-0.904-0.07-1.74-0.141-2.333-0.141c-0.259,0-0.783,0-1.356,0.026
					c-0.546,0-1.167,0.044-1.643,0.044c-0.311,0-0.475-0.07-0.475-0.236c0-0.12,0.092-0.189,0.376-0.189
					c0.361,0,0.649-0.05,0.859-0.094c0.478-0.097,0.6-0.62,0.691-1.313c0.117-0.998,0.117-2.88,0.117-5.072v-4.188H206.289z
					 M209.27,120.256c0,2.523,0.024,4.358,0.049,4.811c0.019,0.595,0.07,1.548,0.257,1.808c0.312,0.454,1.243,0.953,3.122,0.953
					c2.429,0,4.047-0.477,5.479-1.715c1.522-1.309,1.999-3.476,1.999-5.93c0-3.021-1.263-4.971-2.288-5.949
					c-2.188-2.098-4.9-2.383-6.761-2.383c-0.477,0-1.359,0.073-1.55,0.169c-0.213,0.093-0.283,0.214-0.283,0.473
					c-0.024,0.812-0.024,2.882-0.024,4.762V120.256z"/>
				<path fill="#1A1A1A" d="M229.002,123.612c-0.12,0-0.143,0.025-0.188,0.144l-1.123,2.736c-0.212,0.503-0.304,1.002-0.304,1.239
					c0,0.356,0.184,0.573,0.828,0.573h0.315c0.26,0,0.309,0.096,0.309,0.213c0,0.167-0.121,0.213-0.337,0.213
					c-0.69,0-1.668-0.071-2.332-0.071c-0.212,0-1.333,0.071-2.43,0.071c-0.26,0-0.383-0.046-0.383-0.213
					c0-0.117,0.073-0.213,0.24-0.213c0.19,0,0.428-0.026,0.623-0.026c0.947-0.141,1.304-0.76,1.737-1.787l5.473-12.642
					c0.238-0.572,0.406-0.812,0.622-0.812c0.307,0,0.4,0.193,0.616,0.645c0.498,1.119,3.995,9.309,5.332,12.383
					c0.81,1.831,1.407,2.094,1.785,2.164c0.313,0.049,0.55,0.075,0.786,0.075c0.189,0,0.285,0.069,0.285,0.213
					c0,0.167-0.118,0.213-0.9,0.213c-0.738,0-2.264,0-4.025-0.046c-0.384-0.025-0.62-0.025-0.62-0.167
					c0-0.117,0.048-0.19,0.264-0.213c0.141-0.026,0.283-0.217,0.186-0.452l-1.613-4.097c-0.049-0.118-0.123-0.144-0.218-0.144
					H229.002z M233.477,122.495c0.098,0,0.121-0.048,0.098-0.119l-1.979-5.07c-0.02-0.075-0.046-0.189-0.092-0.189
					c-0.076,0-0.095,0.114-0.122,0.189l-2.024,5.045c-0.046,0.097,0,0.145,0.073,0.145H233.477z"/>
				<path fill="#1A1A1A" d="M243.146,119.281c0-3.071,0-3.646-0.027-4.286c-0.043-0.692-0.261-0.929-0.714-1.071
					c-0.236-0.073-0.499-0.096-0.76-0.096c-0.217,0-0.336-0.046-0.336-0.239c0-0.118,0.169-0.163,0.501-0.163
					c0.788,0,2.217,0.045,2.812,0.045c0.521,0,1.881-0.045,2.687-0.045c0.267,0,0.431,0.045,0.431,0.163
					c0,0.19-0.12,0.239-0.332,0.239c-0.216,0-0.381,0.022-0.618,0.071c-0.572,0.096-0.74,0.381-0.788,1.098
					c-0.043,0.639-0.043,1.213-0.043,4.285v3.572c0,1.951,0,3.569,0.091,4.426c0.074,0.547,0.216,0.857,0.832,0.952
					c0.288,0.046,0.764,0.072,1.072,0.072c0.238,0,0.336,0.119,0.336,0.213c0,0.143-0.167,0.213-0.405,0.213
					c-1.38,0-2.81-0.07-3.379-0.07c-0.476,0-1.904,0.07-2.742,0.07c-0.261,0-0.401-0.07-0.401-0.213
					c0-0.094,0.071-0.213,0.333-0.213c0.312,0,0.551-0.026,0.738-0.072c0.429-0.095,0.548-0.379,0.618-0.978
					c0.097-0.831,0.097-2.45,0.097-4.402L243.146,119.281L243.146,119.281z"/>
				<path fill="#1A1A1A" d="M250.926,127.208c0-0.594,0.43-1.453,1.454-1.453c0.812,0,1.451,0.55,1.451,1.383
					s-0.57,1.522-1.475,1.522C251.356,128.66,250.926,127.876,250.926,127.208z"/>
				<path fill="#1A1A1A" d="M259.118,126.804c-2.073-1.74-2.623-4.024-2.623-5.976c0-1.382,0.452-3.761,2.454-5.548
					c1.522-1.334,3.521-2.144,6.645-2.144c1.306,0,2.095,0.097,3.046,0.219c0.786,0.115,1.475,0.257,2.095,0.33
					c0.239,0.023,0.309,0.119,0.309,0.24c0,0.167-0.049,0.404-0.098,1.118c-0.044,0.666-0.044,1.786-0.068,2.187
					c-0.025,0.288-0.092,0.503-0.286,0.503c-0.164,0-0.214-0.168-0.214-0.427c-0.028-0.644-0.284-1.361-0.812-1.882
					c-0.717-0.692-2.118-1.191-4.047-1.191c-1.833,0-3.003,0.334-3.951,1.143c-1.545,1.335-1.93,3.286-1.93,5.265
					c0,4.807,3.721,7.094,6.524,7.094c1.856,0,2.883-0.144,3.719-1.074c0.35-0.403,0.639-0.975,0.711-1.356
					c0.047-0.308,0.095-0.403,0.262-0.403c0.141,0,0.238,0.188,0.238,0.356c0,0.239-0.238,1.999-0.453,2.692
					c-0.097,0.355-0.19,0.452-0.545,0.594c-0.836,0.335-2.428,0.453-3.785,0.453C263.448,128.994,261.022,128.4,259.118,126.804z"/>
				<path fill="#1A1A1A" d="M273.28,121.067c0-3.452,2.427-7.931,8.785-7.931c5.286,0,8.57,2.93,8.57,7.57
					c0,4.647-3.378,8.287-8.779,8.287C275.752,128.994,273.28,124.661,273.28,121.067z M287.518,121.448
					c0-4.478-2.69-7.241-6.072-7.241c-2.336,0-5.071,1.239-5.071,6.239c0,4.168,2.381,7.452,6.336,7.452
					C284.185,127.898,287.518,127.208,287.518,121.448z"/>
				<path fill="#1A1A1A" d="M296.037,113.589c0.047-0.333,0.237-0.522,0.404-0.522c0.217,0,0.355,0.095,0.641,0.642l5.622,11.191
					l5.619-11.333c0.166-0.333,0.358-0.5,0.547-0.5c0.168,0,0.406,0.213,0.477,0.642l1.905,12.454
					c0.189,1.261,0.381,1.809,1.022,1.999c0.596,0.166,0.927,0.189,1.191,0.189c0.188,0,0.336,0.072,0.336,0.19
					c0,0.167-0.241,0.24-0.549,0.24c-0.528,0-3.501-0.073-4.333-0.122c-0.502-0.023-0.621-0.118-0.621-0.238
					c0-0.096,0.093-0.17,0.237-0.214c0.118-0.048,0.167-0.286,0.097-0.856l-1.164-8.738h-0.073l-4.502,8.951
					c-0.476,0.951-0.595,1.145-0.831,1.145c-0.265,0-0.501-0.403-0.834-1.025c-0.502-0.929-2.167-4.023-2.405-4.596
					c-0.165-0.378-1.406-2.831-2.096-4.237h-0.068l-1,7.808c-0.051,0.357-0.074,0.62-0.074,0.952c0,0.383,0.287,0.526,0.641,0.598
					c0.361,0.071,0.552,0.095,0.736,0.095c0.194,0,0.335,0.095,0.335,0.19c0,0.19-0.189,0.235-0.5,0.235
					c-0.88,0-1.83-0.07-2.212-0.07c-0.407,0-1.402,0.07-2.071,0.07c-0.213,0-0.382-0.045-0.382-0.235c0-0.096,0.119-0.19,0.339-0.19
					c0.16,0,0.306,0,0.637-0.051c0.573-0.07,0.762-0.88,0.861-1.544L296.037,113.589z"/>
			</g>
		</g>
		<g>
			<g>
				<path fill="#FFFFFF" d="M83.835,41.671c5.805,0,9.605,0.843,11.397,2.531c1.9,1.69,2.851,3.827,2.851,6.411
					c0,1.636-0.581,3.14-1.741,4.512c-1.373,1.318-2.847,1.979-4.432,1.979c-1.316,0-2.428-0.658-3.324-1.979
					c-0.792-1.161-1.266-2.561-1.425-4.193c0-1.373-0.314-2.693-0.947-3.958c-0.421-1.214-1.424-2.584-3.007-4.116L83.835,41.671z
					 M110.428,35.181l0.95,0.554l-9.024,34.109c-0.368,1.056-0.552,2.161-0.552,3.321c0,0.687,0.102,1.399,0.317,2.138
					c2.061,4.538,3.085,8.363,3.085,11.473c0,2.06-0.739,3.881-2.217,5.459c-1.373,1.321-3.219,1.979-5.539,1.979
					c-1.531,0-2.928-0.501-4.195-1.502c-1.32-1.16-1.979-2.82-1.979-4.985c0-1.316,0.317-3.772,0.95-7.359
					c0.58-2.322,0.872-4.298,0.872-5.934c0-1.952-2.879-3.295-8.629-4.037v-1.581c3.644-0.106,5.805-0.686,6.492-1.743
					L110.428,35.181z M89.14,23.706c6.438,0,10.628,0.899,12.581,2.69c2.113,1.691,3.167,3.88,3.167,6.569
					c0,1.637-0.607,3.168-1.819,4.591c-1.319,1.267-2.772,1.9-4.352,1.9c-1.531,0-2.85-0.659-3.957-1.979
					c-0.898-1.161-1.454-2.612-1.663-4.354c0-1.316-0.37-2.66-1.109-4.033c-0.476-1.216-1.634-2.585-3.48-4.119L89.14,23.706z
					 M112.326,23.706l12.662,5.858h15.432l5.858-7.123l8.705,7.123l-1.58,2.216h-29.048v54.682h17.016l6.175-7.755l8.623,6.171
					l-1.501,3.722h-29.042l-4.036,6.171l-12.666-6.727l3.403-5.3L112.326,23.706L112.326,23.706z"/>
				<path fill="#FFFFFF" d="M215.521,22.125l7.119,4.354c0.844,0.474,1.268,1.106,1.268,1.899c0,0.582-0.82,1.187-2.454,1.82
					l-2.847,7.123h2.528l3.96-3.721l7.917,4.985c0.735,0.476,1.103,1.083,1.103,1.823c0,0.579-0.738,1.185-2.214,1.818
					c-0.636,6.12-1.454,11.476-2.451,16.065c-0.849,3.272-2.773,5.17-5.783,5.696c-1.423,0.212-2.717,0.396-3.875,0.555l7.832,4.668
					c0.789,0.53,1.19,1.03,1.19,1.503c0,0.478-0.925,1.293-2.771,2.453V88.6l3.407-5.541l6.483,7.124l-1.186,2.134h-72.646
					l-0.951-2.134h8.628V64.541l11.476,3.957h31.652l3.401-3.719c-0.633,0.053-1.187,0.081-1.657,0.081
					c-0.213-4.169-2.377-6.757-6.493-7.757v-1.899h10.449c1.684-5.011,2.528-10.263,2.528-15.748h-4.033l-2.451,2.769l-9.575-4.273
					l3.082-2.533l2.139-6.727h-24.217c-0.102,4.328-0.396,8.125-0.87,11.396h12.584l3.56-4.034l8.546,5.379
					c0.684,0.528,1.028,1.001,1.028,1.424c0,0.634-0.738,1.374-2.217,2.216c-1.635,3.326-3.399,6.122-5.3,8.39
					c0.997,0.737,1.846,1.5,2.534,2.293c1.683,1.9,2.53,3.801,2.53,5.701c0,1.37-0.426,2.61-1.264,3.719
					c-1.059,1.214-2.191,1.82-3.404,1.82c-1.057,0-2.403-1.108-4.037-3.325c-1.213-1.529-2.453-2.952-3.72-4.273
					c-4.801,2.64-11.077,4.962-18.833,6.964l-1.265-0.949c6.753-3.375,11.578-6.698,14.482-9.969
					c0.206-0.21,0.398-0.422,0.555-0.633c-1.953-1.584-4.589-3.296-7.913-5.145c-0.421,1.056-0.844,1.977-1.268,2.769
					c-3.588,6.489-10.366,11.767-20.337,15.829l-0.635-1.267c5.227-4.75,8.707-9.708,10.445-14.878
					c1.634-4.958,2.482-12.767,2.535-23.424h-8.944l-0.947-2.214h47.321L215.521,22.125z M181.571,90.183h3.719V70.712h-3.719
					V90.183z M183.946,46.894c4.219,0.844,7.701,1.688,10.449,2.533c1.05-2.109,2.023-4.51,2.922-7.201h-12.423
					C184.628,43.966,184.312,45.523,183.946,46.894z M195.734,90.183h3.406V70.712h-3.406V90.183z M209.664,90.183h4.035V70.712
					h-4.035V90.183z"/>
				<path fill="#FFFFFF" d="M255.404,21.254l13.927,3.165c1.056,0.212,1.584,0.687,1.584,1.423c0,0.634-0.948,1.268-2.851,1.9
					c-2.269,2.217-4.459,4.142-6.57,5.776l0.479,0.08c1.002,0.266,1.505,0.582,1.505,0.951c0,0.581-0.636,1.187-1.901,1.82v13.928
					l-6.096,0.554l7.207,2.533h27.297l2.452-2.059c-4.27-2.163-7.754-4.854-10.442-8.073c-1.109-1.264-2.137-2.847-3.092-4.744
					l-13.926,2.847l-1.499-2.217l14.244-2.929c-1.745-3.798-3.405-8.571-4.989-14.325c9.604,0.159,14.406,0.292,14.406,0.397
					c1,0.054,1.553,0.528,1.661,1.423c-0.108,0.74-0.53,1.294-1.268,1.662l-1.189,0.474c0.898,3.221,2.009,5.857,3.324,7.915
					l12.739-2.611l4.354-6.487l7.359,4.907l-0.87,1.898l-22,4.511c0.581,0.74,1.187,1.346,1.82,1.82
					c2.589,2.321,6.728,4.22,12.429,5.698l3.714-7.439l1.506,0.316c0.211,2.849,0.314,5.011,0.314,6.489
					c0,1.793,1.238,3.457,3.722,4.984c0,1.794-1.004,3.563-3.011,5.304c-1.424,1.318-3.085,2.006-4.984,2.059
					c-0.579,0-1.104-0.028-1.58-0.081c0.844,0.686,1.267,1.239,1.267,1.661c0,0.687-0.928,1.398-2.771,2.136v20.102l-10.128,1.423
					c2.848,0.37,5.193,0.737,7.04,1.106c3.324,0.688,5.83,1.53,7.517,2.534c1.584,0.896,2.38,1.795,2.38,2.688
					c0,2.059-0.639,3.934-1.9,5.62c-1.583,1.795-3.325,2.69-5.22,2.69c-0.899,0-2.061-0.766-3.487-2.292
					c-1.95-2.114-4.062-3.988-6.326-5.62c-2.169-1.635-6.228-3.719-12.194-6.252l0.955-1.582c3.005,0.266,5.697,0.53,8.069,0.791
					V55.52h-27.537v24.769l-12.662,1.821V51.404l-1.264,0.157V41.117c-2.484,1.265-5.04,2.479-7.681,3.64l-0.947-0.632
					c3.693-3.431,6.81-6.991,9.337-10.683C251.525,30.645,253.45,26.584,255.404,21.254z M269.647,58.054l13.14,1.264
					c1.739,0.106,2.606,0.608,2.606,1.503c0.112,0.792-0.71,1.611-2.449,2.454c-0.211,9.55-2.588,16.355-7.124,20.417
					c-5.17,4.692-14.954,7.99-29.356,9.892L246.144,92c8.495-2.639,14.59-6.014,18.281-10.128
					C267.694,78.548,269.434,70.608,269.647,58.054z M292.201,20.937c4.431,0,7.305,0.476,8.623,1.423
					c1.475,0.899,2.218,2.059,2.218,3.482c0,1.426-0.502,2.746-1.505,3.958c-1.16,1.106-2.427,1.659-3.796,1.659
					c-0.896,0-1.689-0.444-2.377-1.344c-0.524-0.792-0.844-1.739-0.947-2.847c0-0.898-0.239-1.793-0.715-2.692
					c-0.313-0.792-1.023-1.688-2.132-2.691L292.201,20.937z"/>
			</g>
		</g>
	</g>
	<g>
		<path fill="#2E59A6" d="M64.608,55.188c-1.585,8.212-6.826,17.617-9.208,20.178c7.629,0.739,14.986-2.227,17.479-9.569
			c2.411-7.099-0.829-14.726-7.292-18.069C65.432,50.142,65.098,52.646,64.608,55.188z"/>
		<path fill="#008040" d="M30.698,85.978c-6.317-5.479-11.844-14.72-12.87-18.065c-4.456,6.236-5.566,14.093-0.452,19.923
			c4.942,5.637,13.169,6.645,19.294,2.722C34.656,89.214,32.652,87.673,30.698,85.978z"/>
		<g>
			<path fill="#2CA6E0" d="M30.699,85.978c9.194,7.977,19.488,12.557,26.581,8.849C67.737,89.36,74.49,79.55,76.55,69.199
				c1.077-5.415,2.166-19.1-10.857-24.254c-0.006,0.912-0.038,1.838-0.098,2.783c6.457,3.344,9.694,10.973,7.283,18.069
				c-2.636,7.77-10.719,10.65-18.808,9.414c-11.128-1.702-27.511-11.143-30.893-13.144c-1.739,1.572-3.303,3.172-4.566,4.75
				c-0.276,0.345-0.542,0.7-0.798,1.056C18.813,71.187,24.358,80.478,30.699,85.978z"/>
			<path fill="#8DC33E" d="M20.989,41.216C9.483,45.19,0.368,51.813,0.032,59.811C-0.461,71.6,4.657,82.356,12.593,89.313
				c4.148,3.639,15.455,11.425,26.432,2.724c-0.786-0.46-1.574-0.951-2.359-1.475c-6.128,3.918-14.352,2.907-19.29-2.728
				c-5.411-6.166-3.867-14.607,1.249-20.994c7.036-8.786,23.405-18.256,26.829-20.184c-0.495-2.29-1.096-4.447-1.831-6.33
				c-0.159-0.412-0.334-0.818-0.516-1.216C39.74,38.318,28.921,38.477,20.989,41.216z"/>
			<g>
				<path fill="#E95513" d="M20.986,41.217c7.904-2.731,18.67-2.896,22.078-2.113c-3.172-6.979-9.422-11.869-17.027-10.354
					c-7.351,1.461-12.337,8.082-12.002,15.35C16.202,43.028,18.539,42.063,20.986,41.217z"/>
				<path fill="#F7B52C" d="M64.604,55.188c2.31-11.951,1.135-23.156-5.625-27.445c-9.961-6.323-21.837-7.267-31.83-3.873
					C21.924,25.646,9.526,31.544,11.574,45.4c0.793-0.451,1.609-0.887,2.458-1.307c-0.332-7.264,4.656-13.88,12.005-15.342
					c8.049-1.602,14.585,3.959,17.558,11.581c4.092,10.486,4.106,29.396,4.064,33.326c2.231,0.718,4.401,1.276,6.397,1.579
					c0.44,0.068,0.878,0.121,1.313,0.161C57.741,72.88,63.011,63.432,64.604,55.188z"/>
			</g>
		</g>
	</g>
</g>
</svg>
