<?xml version="1.0" encoding="utf-8"?>
<!-- Generator: Adobe Illustrator 16.0.0, SVG Export Plug-In . SVG Version: 6.00 Build 0)  -->
<!DOCTYPE svg PUBLIC "-//W3C//DTD SVG 1.1//EN" "http://www.w3.org/Graphics/SVG/1.1/DTD/svg11.dtd">
<svg version="1.1" id="图层_1" xmlns="http://www.w3.org/2000/svg" xmlns:xlink="http://www.w3.org/1999/xlink" x="0px" y="0px"
	 width="303.971px" height="100px" viewBox="0 0 303.971 100" enable-background="new 0 0 303.971 100" xml:space="preserve">
<g id="图层_1_1_">
	<g>
		<g>
			<g>
				<g>
					<path fill="#1A1A1A" d="M139.339,83.738c0.055,0,0.109-0.035,0.109-0.129v-0.389c0-2.816,0-3.336-0.035-3.932
						c-0.036-0.631-0.188-0.93-0.801-1.059c-0.146-0.037-0.464-0.055-0.721-0.055c-0.205,0-0.314-0.037-0.314-0.168
						c0-0.129,0.131-0.166,0.39-0.166c1.002,0,2.169,0.055,2.668,0.055c0.444,0,1.612-0.055,2.337-0.055
						c0.259,0,0.39,0.037,0.39,0.166c0,0.131-0.109,0.168-0.335,0.168c-0.146,0-0.313,0.018-0.535,0.055
						c-0.499,0.096-0.646,0.408-0.687,1.059c-0.038,0.596-0.038,1.111-0.038,3.932v3.262c0,1.707,0,3.172,0.092,3.967
						c0.058,0.52,0.17,0.928,0.728,1.002c0.257,0.035,0.666,0.074,0.941,0.074c0.204,0,0.298,0.055,0.298,0.146
						c0,0.129-0.147,0.186-0.371,0.186c-1.205,0-2.373-0.057-2.893-0.057c-0.426,0-1.593,0.057-2.313,0.057
						c-0.262,0-0.392-0.057-0.392-0.186c0-0.094,0.072-0.146,0.294-0.146c0.281,0,0.503-0.039,0.671-0.074
						c0.37-0.074,0.462-0.482,0.535-1.02c0.094-0.777,0.094-2.242,0.094-3.949v-1.631c0-0.074-0.057-0.111-0.109-0.111h-7.08
						c-0.057,0-0.114,0.02-0.114,0.111v1.631c0,1.707,0,3.172,0.096,3.967c0.057,0.52,0.168,0.928,0.725,1.002
						c0.259,0.035,0.666,0.074,0.943,0.074c0.202,0,0.298,0.055,0.298,0.146c0,0.129-0.149,0.186-0.371,0.186
						c-1.203,0-2.373-0.057-2.893-0.057c-0.428,0-1.596,0.057-2.337,0.057c-0.238,0-0.368-0.057-0.368-0.186
						c0-0.094,0.073-0.146,0.299-0.146c0.275,0,0.499-0.039,0.665-0.074c0.368-0.074,0.464-0.482,0.537-1.02
						c0.094-0.777,0.094-2.242,0.094-3.949v-3.262c0-2.816,0-3.334-0.037-3.932c-0.036-0.631-0.187-0.93-0.798-1.059
						c-0.149-0.037-0.461-0.055-0.725-0.055c-0.201,0-0.314-0.037-0.314-0.168c0-0.129,0.131-0.166,0.393-0.166
						c0.998,0,2.166,0.055,2.667,0.055c0.444,0,1.614-0.055,2.335-0.055c0.262,0,0.392,0.037,0.392,0.166
						c0,0.131-0.111,0.168-0.333,0.168c-0.148,0-0.315,0.018-0.537,0.055c-0.502,0.096-0.648,0.408-0.688,1.059
						c-0.038,0.598-0.038,1.111-0.038,3.932v0.389c0,0.094,0.06,0.129,0.114,0.129H139.339z"/>
					<path fill="#1A1A1A" d="M146.77,84.5c0-2.391,0.019-2.838-0.017-3.336c-0.038-0.557-0.188-0.703-0.708-0.854
						c-0.127-0.037-0.405-0.057-0.629-0.057c-0.187,0-0.277-0.057-0.277-0.168c0-0.109,0.111-0.146,0.353-0.146
						c0.869,0,1.968,0.035,2.445,0.035c0.408,0,1.501-0.035,2.097-0.035c0.238,0,0.354,0.035,0.354,0.146s-0.095,0.168-0.262,0.168
						c-0.188,0-0.277,0.02-0.479,0.057c-0.428,0.072-0.556,0.297-0.594,0.854c-0.039,0.498-0.039,0.945-0.039,3.336v2.205
						c0,2.299,0.447,3.188,1.245,3.818c0.719,0.576,1.499,0.631,2.056,0.631c0.706,0,1.537-0.205,2.188-0.834
						c0.908-0.854,0.942-2.223,0.942-3.838V84.5c0-2.391-0.018-2.838-0.034-3.336c-0.037-0.539-0.169-0.703-0.688-0.854
						c-0.13-0.037-0.409-0.057-0.594-0.057c-0.188,0-0.279-0.057-0.279-0.168c0-0.109,0.114-0.146,0.336-0.146
						c0.832,0,1.93,0.035,1.944,0.035c0.186,0,1.279-0.035,1.911-0.035c0.222,0,0.332,0.035,0.332,0.146s-0.096,0.168-0.279,0.168
						c-0.182,0-0.278,0.02-0.479,0.057c-0.446,0.072-0.559,0.297-0.596,0.854c-0.018,0.498-0.038,0.945-0.038,3.336v1.688
						c0,1.762-0.182,3.613-1.554,4.744c-1.151,0.965-2.39,1.131-3.45,1.131c-0.853,0-2.539-0.037-3.724-1.076
						c-0.835-0.721-1.483-1.889-1.483-4.17L146.77,84.5L146.77,84.5z"/>
					<path fill="#1A1A1A" d="M161.56,84.5c0-2.391,0-2.838-0.02-3.336c-0.036-0.539-0.204-0.723-0.559-0.834
						c-0.186-0.057-0.388-0.074-0.592-0.074c-0.168,0-0.261-0.037-0.261-0.188c0-0.092,0.128-0.127,0.39-0.127
						c0.613,0,1.727,0.035,2.188,0.035c0.409,0,1.466-0.035,2.095-0.035c0.202,0,0.333,0.035,0.333,0.127
						c0,0.148-0.094,0.188-0.257,0.188c-0.17,0-0.298,0.018-0.483,0.055c-0.445,0.074-0.575,0.297-0.611,0.854
						c-0.033,0.498-0.033,0.944-0.033,3.336v2.781c0,1.52,0,2.778,0.069,3.446c0.058,0.426,0.167,0.668,0.649,0.739
						c0.224,0.037,0.592,0.058,0.833,0.058c0.187,0,0.26,0.093,0.26,0.166c0,0.11-0.13,0.166-0.313,0.166
						c-1.073,0-2.188-0.056-2.633-0.056c-0.369,0-1.48,0.056-2.133,0.056c-0.202,0-0.314-0.056-0.314-0.166
						c0-0.073,0.057-0.166,0.261-0.166c0.241,0,0.427-0.021,0.575-0.058c0.333-0.071,0.428-0.295,0.48-0.76
						c0.074-0.647,0.074-1.908,0.074-3.429L161.56,84.5L161.56,84.5z"/>
					<path fill="#1A1A1A" d="M171.55,87.059c0-1.002-0.188-1.41-0.427-1.943c-0.13-0.301-2.614-4.379-3.263-5.342
						c-0.466-0.688-0.928-1.146-1.279-1.354c-0.241-0.129-0.558-0.24-0.775-0.24c-0.152,0-0.281-0.037-0.281-0.168
						c0-0.111,0.129-0.166,0.354-0.166c0.334,0,1.726,0.055,2.336,0.055c0.39,0,1.149-0.055,1.982-0.055
						c0.187,0,0.277,0.055,0.277,0.166s-0.13,0.131-0.408,0.203c-0.168,0.037-0.262,0.188-0.262,0.336s0.094,0.369,0.225,0.629
						c0.262,0.557,2.856,5.023,3.152,5.541c0.188-0.443,2.521-4.521,2.779-5.096c0.188-0.408,0.259-0.723,0.259-0.965
						c0-0.184-0.071-0.389-0.388-0.463c-0.168-0.037-0.333-0.074-0.333-0.186c0-0.131,0.093-0.166,0.312-0.166
						c0.615,0,1.208,0.055,1.745,0.055c0.408,0,1.63-0.055,1.982-0.055c0.204,0,0.334,0.035,0.334,0.146
						c0,0.129-0.148,0.188-0.354,0.188c-0.184,0-0.536,0.07-0.813,0.223c-0.394,0.186-0.597,0.406-1.002,0.908
						c-0.61,0.738-3.207,5.098-3.539,5.893c-0.278,0.67-0.278,1.244-0.278,1.855v1.518c0,0.299,0,1.078,0.054,1.855
						c0.038,0.535,0.205,0.943,0.764,1.02c0.258,0.035,0.667,0.074,0.924,0.074c0.207,0,0.3,0.055,0.3,0.146
						c0,0.129-0.146,0.186-0.392,0.186c-1.168,0-2.334-0.057-2.834-0.057c-0.466,0-1.634,0.057-2.317,0.057
						c-0.26,0-0.407-0.035-0.407-0.186c0-0.094,0.092-0.146,0.297-0.146c0.26,0,0.482-0.039,0.646-0.074
						c0.371-0.074,0.539-0.482,0.576-1.02c0.057-0.777,0.057-1.559,0.057-1.855L171.55,87.059L171.55,87.059z"/>
					<path fill="#1A1A1A" d="M181.52,84.5c0-2.391,0-2.838-0.021-3.336c-0.038-0.539-0.202-0.723-0.559-0.834
						c-0.185-0.057-0.387-0.074-0.592-0.074c-0.166,0-0.26-0.037-0.26-0.188c0-0.092,0.131-0.127,0.391-0.127
						c0.614,0,1.726,0.035,2.188,0.035c0.408,0,1.466-0.035,2.095-0.035c0.205,0,0.334,0.035,0.334,0.127
						c0,0.148-0.092,0.188-0.259,0.188s-0.297,0.018-0.481,0.055c-0.443,0.074-0.576,0.297-0.608,0.854
						c-0.04,0.498-0.04,0.944-0.04,3.336v2.781c0,1.52,0,2.778,0.074,3.446c0.057,0.426,0.168,0.668,0.649,0.739
						c0.221,0.037,0.592,0.058,0.831,0.058c0.188,0,0.261,0.093,0.261,0.166c0,0.11-0.128,0.166-0.313,0.166
						c-1.076,0-2.188-0.056-2.634-0.056c-0.37,0-1.479,0.056-2.136,0.056c-0.199,0-0.312-0.056-0.312-0.166
						c0-0.073,0.055-0.166,0.257-0.166c0.242,0,0.428-0.021,0.577-0.058c0.333-0.071,0.426-0.295,0.479-0.76
						c0.075-0.647,0.075-1.908,0.075-3.429L181.52,84.5L181.52,84.5z"/>
					<path fill="#1A1A1A" d="M190.082,89.709c0.034,1.223,0.241,1.592,0.555,1.705c0.28,0.092,0.594,0.111,0.855,0.111
						c0.186,0,0.275,0.074,0.275,0.166c0,0.131-0.147,0.166-0.371,0.166c-1.058,0-1.815-0.057-2.113-0.057
						c-0.146,0-0.93,0.057-1.764,0.057c-0.221,0-0.368-0.02-0.368-0.166c0-0.092,0.111-0.166,0.26-0.166
						c0.225,0,0.52-0.021,0.741-0.074c0.427-0.111,0.479-0.537,0.5-1.91l0.147-9.342c0-0.313,0.11-0.537,0.279-0.537
						c0.202,0,0.428,0.24,0.704,0.518c0.201,0.205,2.648,2.709,5.021,5.023c1.112,1.096,3.281,3.32,3.521,3.541h0.071l-0.163-7.008
						c-0.021-0.961-0.17-1.238-0.558-1.389c-0.241-0.094-0.63-0.094-0.854-0.094c-0.201,0-0.258-0.074-0.258-0.168
						c0-0.129,0.165-0.146,0.408-0.146c0.854,0,1.722,0.035,2.073,0.035c0.187,0,0.8-0.035,1.595-0.035
						c0.226,0,0.37,0.019,0.37,0.146c0,0.094-0.091,0.168-0.275,0.168c-0.168,0-0.299,0-0.499,0.057
						c-0.445,0.131-0.576,0.406-0.596,1.299l-0.186,9.934c0,0.354-0.131,0.5-0.262,0.5c-0.274,0-0.501-0.164-0.667-0.332
						c-1.02-0.945-3.061-2.893-4.763-4.541c-1.779-1.705-3.504-3.615-3.818-3.895h-0.057L190.082,89.709z"/>
					<path fill="#1A1A1A" d="M214.603,90.801c0,0.428,0,0.447-0.207,0.557c-1.091,0.539-2.706,0.705-3.979,0.705
						c-4.004,0-7.546-1.816-7.546-6.172c0-2.521,1.354-4.281,2.854-5.154c1.561-0.906,3.021-1.02,4.394-1.02
						c1.131,0,2.56,0.186,2.892,0.26c0.334,0.059,0.909,0.148,1.301,0.168c0.184,0.02,0.221,0.074,0.221,0.188
						c0,0.188-0.111,0.609-0.111,2.594c0,0.24-0.09,0.354-0.221,0.354c-0.113,0-0.147-0.072-0.166-0.201
						c-0.038-0.355-0.131-0.855-0.562-1.299c-0.479-0.5-1.703-1.205-3.537-1.205c-0.891,0-2.021,0.02-3.149,0.928
						c-0.909,0.742-1.504,1.908-1.504,3.836c0,3.393,2.188,5.857,5.673,5.857c0.428,0,0.76,0,1.149-0.168
						c0.239-0.109,0.316-0.277,0.316-0.555v-1.447c0-0.775,0-1.369-0.021-1.854c-0.017-0.537-0.187-0.705-0.705-0.854
						c-0.126-0.039-0.406-0.057-0.627-0.057c-0.146,0-0.261-0.072-0.261-0.166c0-0.13,0.13-0.146,0.354-0.146
						c0.853,0,2.02,0.033,2.502,0.033c0.521,0,1.369-0.033,1.907-0.033c0.223,0,0.333,0.018,0.333,0.146
						c0,0.094-0.091,0.166-0.204,0.166c-0.129,0-0.26,0.018-0.441,0.057c-0.446,0.074-0.615,0.298-0.632,0.854
						c-0.019,0.48-0.019,1.109-0.019,1.891L214.603,90.801L214.603,90.801z"/>
					<path fill="#1A1A1A" d="M219.528,83.221c0-2.816,0-3.334-0.033-3.93c-0.036-0.631-0.188-0.928-0.8-1.057
						c-0.146-0.037-0.465-0.055-0.721-0.055c-0.208,0-0.314-0.037-0.314-0.17c0-0.129,0.129-0.164,0.404-0.164
						c0.984,0,2.151,0.055,2.67,0.055c0.572,0,1.74-0.055,2.855-0.055c2.313,0,5.413,0,7.432,2.111
						c0.929,0.965,1.799,2.502,1.799,4.707c0,2.336-0.98,4.117-2.021,5.172c-0.853,0.871-2.776,2.188-6.206,2.188
						c-0.667,0-1.429-0.055-2.133-0.112c-0.704-0.056-1.354-0.109-1.816-0.109c-0.202,0-0.609,0-1.056,0.021
						c-0.426,0-0.908,0.034-1.278,0.034c-0.243,0-0.371-0.056-0.371-0.185c0-0.094,0.072-0.147,0.294-0.147
						c0.281,0,0.505-0.039,0.669-0.073c0.371-0.074,0.467-0.481,0.537-1.021c0.093-0.777,0.093-2.242,0.093-3.949L219.528,83.221
						L219.528,83.221z M221.848,85.26c0,1.965,0.02,3.393,0.037,3.744c0.016,0.463,0.055,1.205,0.201,1.408
						c0.241,0.354,0.967,0.742,2.431,0.742c1.892,0,3.15-0.371,4.266-1.336c1.186-1.02,1.557-2.705,1.557-4.615
						c0-2.354-0.982-3.871-1.781-4.633c-1.704-1.633-3.814-1.854-5.264-1.854c-0.371,0-1.059,0.058-1.206,0.132
						c-0.166,0.071-0.221,0.166-0.221,0.368c-0.02,0.632-0.02,2.242-0.02,3.707V85.26L221.848,85.26z"/>
					<path fill="#1A1A1A" d="M237.21,87.873c-0.094,0-0.111,0.02-0.146,0.111l-0.874,2.131c-0.166,0.391-0.236,0.779-0.236,0.965
						c0,0.277,0.144,0.445,0.646,0.445h0.245c0.202,0,0.24,0.074,0.24,0.166c0,0.131-0.094,0.166-0.262,0.166
						c-0.537,0-1.3-0.057-1.816-0.057c-0.165,0-1.037,0.057-1.892,0.057c-0.202,0-0.298-0.035-0.298-0.166
						c0-0.092,0.057-0.166,0.188-0.166c0.147,0,0.333-0.021,0.483-0.021c0.738-0.107,1.017-0.592,1.354-1.391l4.261-9.844
						c0.188-0.443,0.316-0.631,0.485-0.631c0.238,0,0.311,0.15,0.479,0.502c0.39,0.871,3.111,7.246,4.152,9.641
						c0.63,1.426,1.095,1.631,1.39,1.686c0.242,0.037,0.428,0.059,0.611,0.059c0.148,0,0.223,0.055,0.223,0.166
						c0,0.131-0.092,0.166-0.7,0.166c-0.574,0-1.764,0-3.135-0.035c-0.299-0.021-0.481-0.021-0.481-0.131
						c0-0.092,0.037-0.148,0.204-0.166c0.109-0.021,0.222-0.168,0.146-0.354l-1.257-3.188c-0.038-0.092-0.095-0.111-0.169-0.111
						H237.21z M240.694,87.002c0.075,0,0.096-0.037,0.075-0.092l-1.539-3.947c-0.017-0.059-0.037-0.148-0.071-0.148
						c-0.06,0-0.074,0.09-0.096,0.148l-1.576,3.928c-0.035,0.074,0,0.111,0.059,0.111H240.694z"/>
					<path fill="#1A1A1A" d="M248.22,84.5c0-2.391,0-2.838-0.021-3.336c-0.033-0.539-0.202-0.723-0.558-0.834
						c-0.183-0.057-0.388-0.074-0.59-0.074c-0.169,0-0.262-0.037-0.262-0.188c0-0.092,0.131-0.127,0.39-0.127
						c0.613,0,1.727,0.035,2.188,0.035c0.405,0,1.465-0.035,2.092-0.035c0.208,0,0.336,0.035,0.336,0.127
						c0,0.148-0.094,0.188-0.259,0.188c-0.168,0-0.297,0.018-0.481,0.055c-0.446,0.074-0.577,0.297-0.614,0.854
						c-0.032,0.498-0.032,0.944-0.032,3.336v2.781c0,1.52,0,2.778,0.069,3.446c0.06,0.426,0.169,0.668,0.648,0.739
						c0.225,0.037,0.595,0.058,0.835,0.058c0.186,0,0.262,0.093,0.262,0.166c0,0.11-0.131,0.166-0.314,0.166
						c-1.074,0-2.188-0.056-2.633-0.056c-0.369,0-1.48,0.056-2.134,0.056c-0.204,0-0.313-0.056-0.313-0.166
						c0-0.073,0.056-0.166,0.261-0.166c0.242,0,0.428-0.021,0.574-0.058c0.333-0.071,0.427-0.295,0.479-0.76
						c0.075-0.647,0.075-1.908,0.075-3.429V84.5L248.22,84.5z"/>
					<path fill="#1A1A1A" d="M254.279,90.672c0-0.463,0.333-1.131,1.133-1.131c0.631,0,1.13,0.428,1.13,1.076
						s-0.445,1.186-1.149,1.186C254.612,91.803,254.279,91.191,254.279,90.672z"/>
					<path fill="#1A1A1A" d="M260.656,90.357c-1.614-1.354-2.042-3.133-2.042-4.652c0-1.076,0.352-2.928,1.909-4.318
						c1.187-1.039,2.741-1.67,5.174-1.67c1.017,0,1.63,0.076,2.37,0.17c0.611,0.09,1.148,0.201,1.632,0.258
						c0.187,0.02,0.239,0.092,0.239,0.188c0,0.131-0.038,0.314-0.075,0.871c-0.034,0.52-0.034,1.391-0.054,1.701
						c-0.02,0.225-0.071,0.393-0.223,0.393c-0.128,0-0.167-0.131-0.167-0.332c-0.021-0.502-0.221-1.061-0.632-1.465
						c-0.559-0.539-1.648-0.93-3.149-0.93c-1.428,0-2.339,0.262-3.077,0.891c-1.203,1.039-1.503,2.561-1.503,4.1
						c0,3.742,2.896,5.521,5.08,5.521c1.445,0,2.244-0.109,2.896-0.836c0.271-0.313,0.498-0.76,0.555-1.057
						c0.036-0.238,0.072-0.313,0.203-0.313c0.108,0,0.186,0.146,0.186,0.275c0,0.188-0.186,1.559-0.353,2.098
						c-0.075,0.275-0.148,0.354-0.424,0.463c-0.651,0.262-1.892,0.354-2.947,0.354C264.027,92.063,262.138,91.6,260.656,90.357z"/>
					<path fill="#1A1A1A" d="M271.681,85.891c0-2.688,1.89-6.174,6.84-6.174c4.115,0,6.672,2.281,6.672,5.895
						c0,3.617-2.63,6.451-6.835,6.451C273.606,92.063,271.681,88.689,271.681,85.891z M282.765,86.188
						c0-3.484-2.093-5.637-4.727-5.637c-1.818,0-3.947,0.965-3.947,4.857c0,3.244,1.853,5.801,4.932,5.801
						C280.171,91.209,282.765,90.672,282.765,86.188z"/>
					<path fill="#1A1A1A" d="M289.399,80.068c0.036-0.258,0.186-0.406,0.314-0.406c0.169,0,0.277,0.074,0.499,0.5l4.377,8.713
						l4.375-8.824c0.129-0.258,0.278-0.389,0.425-0.389c0.131,0,0.316,0.166,0.371,0.5l1.483,9.695
						c0.146,0.98,0.297,1.408,0.796,1.557c0.465,0.129,0.722,0.146,0.928,0.146c0.146,0,0.262,0.057,0.262,0.148
						c0,0.129-0.188,0.188-0.428,0.188c-0.411,0-2.726-0.059-3.373-0.096c-0.391-0.018-0.483-0.092-0.483-0.186
						c0-0.074,0.073-0.133,0.186-0.166c0.092-0.037,0.13-0.225,0.075-0.668l-0.906-6.803h-0.057l-3.506,6.969
						c-0.369,0.74-0.463,0.891-0.646,0.891c-0.206,0-0.389-0.313-0.649-0.797c-0.39-0.725-1.687-3.133-1.872-3.578
						c-0.129-0.295-1.095-2.205-1.631-3.299h-0.054l-0.779,6.078c-0.039,0.277-0.058,0.482-0.058,0.74c0,0.299,0.224,0.41,0.5,0.467
						c0.279,0.055,0.429,0.072,0.572,0.072c0.15,0,0.261,0.074,0.261,0.148c0,0.148-0.146,0.184-0.39,0.184
						c-0.686,0-1.426-0.055-1.723-0.055c-0.315,0-1.092,0.055-1.612,0.055c-0.166,0-0.297-0.035-0.297-0.184
						c0-0.074,0.094-0.148,0.264-0.148c0.126,0,0.237,0,0.496-0.039c0.445-0.055,0.593-0.686,0.671-1.201L289.399,80.068z"/>
				</g>
			</g>
			<g>
				<g>
					<path fill="#1A1A1A" d="M124.193,24.079c4.521,0,7.479,0.657,8.873,1.971c1.479,1.315,2.221,2.979,2.221,4.991
						c0,1.273-0.452,2.444-1.355,3.512c-1.069,1.027-2.217,1.541-3.45,1.541c-1.024,0-1.891-0.513-2.588-1.541
						c-0.617-0.903-0.985-1.993-1.108-3.265c0-1.068-0.244-2.096-0.737-3.081c-0.328-0.945-1.108-2.012-2.341-3.204L124.193,24.079z
						 M144.897,19.027l0.739,0.431l-7.025,26.555c-0.285,0.822-0.43,1.683-0.43,2.586c0,0.534,0.079,1.089,0.246,1.664
						c1.604,3.533,2.402,6.51,2.402,8.932c0,1.603-0.576,3.021-1.728,4.25c-1.067,1.029-2.506,1.541-4.313,1.541
						c-1.191,0-2.279-0.391-3.267-1.17c-1.026-0.903-1.541-2.196-1.541-3.881c0-1.024,0.247-2.938,0.739-5.729
						c0.452-1.808,0.679-3.347,0.679-4.62c0-1.519-2.24-2.565-6.718-3.143v-1.231c2.837-0.082,4.521-0.534,5.054-1.357
						L144.897,19.027z M128.323,10.093c5.012,0,8.273,0.699,9.794,2.094c1.646,1.316,2.466,3.021,2.466,5.114
						c0,1.274-0.474,2.466-1.416,3.574c-1.027,0.986-2.158,1.479-3.39,1.479c-1.191,0-2.219-0.513-3.079-1.541
						c-0.699-0.904-1.133-2.033-1.296-3.389c0-1.025-0.287-2.072-0.862-3.141c-0.37-0.946-1.272-2.012-2.71-3.206L128.323,10.093z
						 M146.374,10.093l9.857,4.56h12.015l4.561-5.545l6.776,5.545l-1.23,1.725H155.74v42.571h13.246l4.809-6.037l6.714,4.805
						l-1.17,2.896h-22.609l-3.142,4.805l-9.86-5.236l2.649-4.127L146.374,10.093L146.374,10.093z"/>
					<path fill="#1A1A1A" d="M226.713,8.862l5.543,3.389c0.658,0.369,0.986,0.862,0.986,1.479c0,0.453-0.639,0.924-1.909,1.417
						l-2.217,5.546h1.97l3.082-2.897l6.163,3.881c0.571,0.37,0.857,0.843,0.857,1.418c0,0.451-0.573,0.923-1.724,1.416
						c-0.494,4.765-1.132,8.934-1.908,12.507c-0.66,2.548-2.158,4.025-4.502,4.435c-1.108,0.165-2.115,0.308-3.018,0.432
						l6.099,3.634c0.614,0.412,0.926,0.802,0.926,1.17c0,0.371-0.72,1.007-2.157,1.91v12.015l2.652-4.313l5.048,5.545l-0.923,1.662
						h-56.558l-0.74-1.662h6.718V41.884l8.935,3.08h24.643l2.648-2.894c-0.493,0.04-0.925,0.062-1.291,0.062
						c-0.165-3.245-1.852-5.259-5.056-6.038v-1.479h8.136c1.311-3.901,1.97-7.99,1.97-12.26h-3.143l-1.907,2.156l-7.455-3.327
						l2.399-1.972l1.665-5.237h-18.854c-0.079,3.369-0.31,6.325-0.679,8.872h9.798l2.771-3.141l6.653,4.188
						c0.532,0.411,0.801,0.78,0.801,1.109c0,0.493-0.575,1.069-1.726,1.725c-1.272,2.589-2.646,4.766-4.127,6.531
						c0.776,0.575,1.438,1.169,1.974,1.786c1.31,1.479,1.97,2.958,1.97,4.438c0,1.067-0.331,2.032-0.982,2.895
						c-0.825,0.945-1.706,1.417-2.65,1.417c-0.822,0-1.871-0.863-3.143-2.588c-0.945-1.191-1.911-2.299-2.897-3.327
						c-3.737,2.055-8.624,3.862-14.661,5.422l-0.983-0.74c5.257-2.627,9.014-5.215,11.273-7.761
						c0.161-0.163,0.312-0.329,0.434-0.493c-1.521-1.233-3.573-2.566-6.161-4.005c-0.328,0.822-0.657,1.54-0.986,2.156
						c-2.794,5.052-8.071,9.16-15.833,12.323l-0.495-0.986c4.069-3.698,6.778-7.557,8.133-11.583
						c1.271-3.86,1.934-9.939,1.974-18.236h-6.963l-0.737-1.724h36.841L226.713,8.862z M200.282,61.846h2.896V46.688h-2.896V61.846z
						 M202.132,28.145c3.284,0.657,5.996,1.314,8.135,1.972c0.817-1.642,1.576-3.511,2.274-5.606h-9.671
						C202.663,25.866,202.416,27.078,202.132,28.145z M211.309,61.846h2.652V46.688h-2.652V61.846z M222.154,61.846h3.144V46.688
						h-3.144V61.846z"/>
					<path fill="#1A1A1A" d="M257.763,8.184l10.844,2.464c0.821,0.165,1.232,0.534,1.232,1.108c0,0.494-0.738,0.987-2.219,1.479
						c-1.768,1.726-3.473,3.225-5.114,4.497l0.372,0.062c0.779,0.207,1.171,0.452,1.171,0.74c0,0.452-0.494,0.924-1.479,1.417
						v10.843l-4.744,0.431l5.609,1.973h21.252l1.908-1.603c-3.324-1.684-6.036-3.779-8.129-6.285
						c-0.864-0.984-1.664-2.216-2.407-3.694l-10.842,2.217l-1.168-1.726l11.09-2.28c-1.358-2.957-2.651-6.673-3.884-11.152
						c7.477,0.124,11.216,0.227,11.216,0.309c0.778,0.042,1.208,0.411,1.293,1.108c-0.085,0.576-0.413,1.007-0.987,1.294
						l-0.925,0.369c0.698,2.507,1.563,4.56,2.588,6.162l9.918-2.033l3.391-5.051l5.729,3.82l-0.678,1.478l-17.127,3.512
						c0.451,0.576,0.923,1.048,1.417,1.417c2.015,1.807,5.237,3.285,9.676,4.436l2.892-5.791l1.173,0.246
						c0.165,2.218,0.244,3.901,0.244,5.052c0,1.396,0.965,2.691,2.897,3.881c0,1.396-0.781,2.772-2.344,4.128
						c-1.108,1.027-2.402,1.562-3.881,1.602c-0.451,0-0.859-0.021-1.23-0.063c0.657,0.534,0.986,0.965,0.986,1.293
						c0,0.535-0.724,1.088-2.158,1.663v15.649l-7.884,1.107c2.217,0.287,4.043,0.574,5.479,0.861
						c2.588,0.535,4.539,1.191,5.854,1.973c1.231,0.697,1.853,1.396,1.853,2.094c0,1.604-0.498,3.063-1.479,4.375
						c-1.232,1.396-2.588,2.096-4.063,2.096c-0.7,0-1.604-0.598-2.715-1.785c-1.518-1.646-3.162-3.104-4.926-4.375
						c-1.688-1.271-4.849-2.896-9.492-4.867l0.742-1.23c2.34,0.207,4.436,0.412,6.283,0.615V34.86h-21.438v19.285l-9.858,1.416
						V31.656l-0.982,0.123v-8.131c-1.936,0.985-3.924,1.93-5.979,2.834L246,25.989c2.876-2.67,5.302-5.442,7.27-8.316
						C254.744,15.495,256.243,12.333,257.763,8.184z M268.853,36.833l10.229,0.984c1.354,0.083,2.029,0.474,2.029,1.17
						c0.088,0.617-0.553,1.255-1.906,1.911c-0.164,7.435-2.016,12.733-5.546,15.895c-4.025,3.654-11.644,6.221-22.855,7.701
						l-0.248-1.232c6.613-2.055,11.358-4.682,14.232-7.885C267.332,52.789,268.688,46.607,268.853,36.833z M286.412,7.937
						c3.447,0,5.688,0.37,6.713,1.108c1.147,0.7,1.727,1.603,1.727,2.711c0,1.11-0.391,2.137-1.172,3.082
						c-0.902,0.861-1.889,1.292-2.954,1.292c-0.699,0-1.314-0.347-1.851-1.047c-0.409-0.616-0.657-1.354-0.737-2.217
						c0-0.699-0.187-1.396-0.558-2.095c-0.243-0.617-0.797-1.314-1.659-2.095L286.412,7.937z"/>
				</g>
			</g>
		</g>
		<g>
			<path fill="#2E59A6" d="M87.078,44.815c-2.138,11.068-9.2,23.744-12.411,27.195c10.283,0.998,20.199-3,23.558-12.896
				c3.249-9.566-1.117-19.847-9.828-24.354C88.19,38.014,87.74,41.39,87.078,44.815z"/>
			<path fill="#008040" d="M41.375,86.314c-8.516-7.385-15.964-19.84-17.348-24.35c-6.006,8.404-7.502,18.994-0.607,26.854
				c6.661,7.596,17.749,8.955,26.004,3.668C46.711,90.676,44.008,88.6,41.375,86.314z"/>
			<g>
				<path fill="#2CA6E0" d="M41.376,86.314c12.392,10.75,26.266,16.924,35.826,11.926c14.094-7.367,23.195-20.59,25.972-34.541
					c1.452-7.297,2.92-25.742-14.634-32.688c-0.008,1.228-0.053,2.477-0.132,3.75c8.702,4.508,13.064,14.79,9.815,24.353
					c-3.553,10.471-14.447,14.354-25.349,12.688c-14.998-2.293-37.08-15.018-41.639-17.715c-2.344,2.119-4.451,4.274-6.153,6.402
					c-0.373,0.465-0.731,0.942-1.075,1.422C25.356,66.379,32.83,78.902,41.376,86.314z"/>
				<path fill="#8DC33E" d="M28.289,25.984C12.781,31.34,0.496,40.267,0.044,51.047c-0.666,15.889,6.231,30.387,16.929,39.764
					c5.592,4.904,20.831,15.398,35.625,3.672c-1.06-0.621-2.122-1.281-3.18-1.988c-8.26,5.281-19.344,3.92-26-3.676
					c-7.293-8.313-5.211-19.688,1.684-28.297c9.483-11.842,31.545-24.604,36.16-27.204c-0.666-3.087-1.477-5.994-2.467-8.532
					c-0.215-0.555-0.451-1.103-0.696-1.639C53.562,22.078,38.98,22.292,28.289,25.984z"/>
				<g>
					<path fill="#E95513" d="M28.285,25.986c10.651-3.682,25.164-3.904,29.757-2.848C53.767,13.733,45.344,7.142,35.093,9.184
						c-9.908,1.97-16.629,10.892-16.177,20.688C21.837,28.427,24.987,27.125,28.285,25.986z"/>
					<path fill="#F7B52C" d="M87.074,44.817c3.112-16.108,1.528-31.21-7.582-36.991C66.066-0.696,50.06-1.969,36.591,2.606
						C29.549,4.999,12.839,12.948,15.6,31.623c1.069-0.607,2.17-1.195,3.313-1.761c-0.447-9.791,6.273-18.708,16.181-20.678
						c10.848-2.159,19.658,5.335,23.665,15.608c5.515,14.133,5.533,39.62,5.477,44.917c3.009,0.967,5.934,1.719,8.622,2.129
						c0.594,0.092,1.185,0.162,1.771,0.217C77.824,68.66,84.927,55.926,87.074,44.817z"/>
				</g>
			</g>
		</g>
	</g>
</g>
</svg>
